<svg xmlns="http://www.w3.org/2000/svg" xmlns:xlink="http://www.w3.org/1999/xlink" data-name="layer 1" viewBox="0 0 1159.001 771"><defs><linearGradient id="a" x1="6630.867" x2="6630.867" y1="51.419" y2="-94.745" gradientTransform="matrix(-1 0 0 1 7414.053 0)" gradientUnits="userSpaceOnUse"><stop offset="0" stop-color="#9ed1de"/><stop offset="1" stop-color="#fff" stop-opacity="0"/></linearGradient><linearGradient id="c" x1="7045.516" x2="7045.516" y1="51.419" y2="-94.745" xlink:href="#a"/><clipPath id="b"><rect width="1159.001" height="771" fill="none"/></clipPath></defs><g clip-path="url(#b)"><rect width="1159.001" height="771" fill="#ebfbff"/><polygon fill="#c5e6ed" points="733.72 265.736 732.982 664.347 768.384 664.442 769.185 250.274 733.384 265.735 733.72 265.736"/><polygon fill="#d7f2f9" points="639.207 664.09 732.982 664.347 733.72 265.736 639.207 265.479 639.207 664.09"/><polygon fill="#fcfcfe" points="733.72 265.736 698.447 95.378 639.207 265.479 733.72 265.736" opacity=".46"/><polygon fill="#d7f2f9" points="698.447 95.378 769.185 250.274 733.72 265.736 698.447 95.378"/><path fill="#fcfcfe" d="M962.2115,89.4776h-.1993a39.79622,39.79622,0,0,0-37.3491-7.4375c1.2295-3.9483,3.1831-7.6436,1.4605-11.8565-1.7588-4.3037-6.5513-6.8125-10.7647-7.9912-7.707-2.1553-16.0029-1.1328-22.0322,3.6182-2.1958-10.4014-11.0078-19.2364-22.3828-18.7188-12.0489.5479-20.3985,11.3936-20.7007,22.7051-6.3267-1.7305-13.3257-2.4258-19.5649-.2959-5.3975,1.8418-6.8545,7.2578-10.837,9.0098-5.3964,2.374-11.625-1.8018-16.3994,3.3056a7.2777,7.2777,0,0,0-1.8672,7.2998,15.83569,15.83569,0,0,0,4.3662,5.0879H960.4737a2.4179,2.4179,0,0,0,3.0122-.4101C965.1289,92.6729,964.729,89.4776,962.2115,89.4776Z"/><path fill="#fcfcfe" d="M755.9263,53.7403h-.1152a23.0403,23.0403,0,0,0-21.6202-4.3057c.712-2.2852,1.8428-4.4238.8458-6.8623-1.0181-2.4912-3.792-3.9434-6.2315-4.626a14.3391,14.3391,0,0,0-12.7529,2.0947c-1.271-6.0214-6.3721-11.1347-12.9561-10.8359-6.9746.3174-11.8076,6.5957-11.9824,13.1436-3.6626-1.002-7.7139-1.4043-11.3257-.1719-3.124,1.0664-3.9673,4.2012-6.2729,5.2158-3.1241,1.374-6.7285-1.043-9.4922,1.9131a4.21365,4.21365,0,0,0-1.0811,4.2256,9.15437,9.15437,0,0,0,2.5274,2.9453h89.4511a1.40062,1.40062,0,0,0,1.7437-.2373A1.37513,1.37513,0,0,0,755.9263,53.7403Z"/><path fill="#fcfcfe" d="M109.7515,176.7627h-.1025a20.5719,20.5719,0,0,0-19.3067-3.8447c.6358-2.041,1.6455-3.9512.7549-6.1289-.9092-2.2246-3.3867-3.5225-5.5645-4.1309a12.80316,12.80316,0,0,0-11.3891,1.8702c-1.1353-5.377-5.6904-9.9434-11.5708-9.6768-6.2276.2832-10.544,5.8896-10.7002,11.7373a17.47358,17.47358,0,0,0-10.1133-.1533c-2.79.9521-3.5434,3.7529-5.602,4.6572-2.7896,1.2275-6.0093-.9307-8.4771,1.709a3.76219,3.76219,0,0,0-.9658,3.7734,8.20241,8.20241,0,0,0,2.2568,2.6309H108.854a1.24914,1.24914,0,0,0,1.5567-.2129A1.22714,1.22714,0,0,0,109.7515,176.7627Z"/><path fill="#fcfcfe" d="M177.8189,74.3252h-.1216a24.416,24.416,0,0,0-22.9146-4.5635c.7549-2.4228,1.9532-4.6894.8965-7.2744-1.0791-2.6396-4.0195-4.1797-6.6045-4.9023-4.7285-1.3223-9.8183-.6953-13.5171,2.2197-1.3471-6.3818-6.7534-11.8017-13.7324-11.4844-7.3921.336-12.5141,6.9903-12.7002,13.9297-3.8813-1.0615-8.1753-1.4883-12.0034-.1806-3.311,1.1298-4.2051,4.4521-6.6484,5.5273-3.3111,1.4561-7.1319-1.1055-10.0611,2.0283a4.46539,4.46539,0,0,0-1.146,4.4776,9.717,9.717,0,0,0,2.6788,3.122h94.8085a1.483,1.483,0,0,0,1.8482-.2519A1.45667,1.45667,0,0,0,177.8189,74.3252Z"/><path fill="#fcfcfe" d="M608.5806,103.2315h-.166a33.27715,33.27715,0,0,0-31.228-6.2188c1.0283-3.3008,2.6616-6.3906,1.2211-9.9131-1.4707-3.5976-5.4775-5.6953-9.0004-6.6806-6.4439-1.8028-13.3804-.9473-18.4209,3.0244-1.836-8.6963-9.2037-16.083-18.7144-15.6504-10.0737.458-17.0547,9.5264-17.3076,18.9834-5.2901-1.4463-11.1416-2.0283-16.3584-.2471-4.5127,1.5401-5.731,6.0684-9.0606,7.5332-4.5127,1.9844-9.7197-1.5068-13.7114,2.7637a6.08714,6.08714,0,0,0-1.562,6.1035,13.244,13.244,0,0,0,3.6509,4.2539H607.128a2.0226,2.0226,0,0,0,2.5185-.3427C611.02,105.9034,610.6861,103.2315,608.5806,103.2315Z"/><polygon fill="#c5e6ed" points="179.207 82.938 180.046 620.107 217.192 620.024 216.417 191.889 216.769 191.888 179.207 82.938"/><polygon fill="#d7f2f9" points="315.585 191.665 315.585 619.802 217.192 620.024 216.417 191.889 315.585 191.665"/><polygon fill="#fcfcfe" points="216.417 191.889 179.246 82.938 280.367 82.938 315.585 191.437 315.585 191.58 216.417 191.889"/><rect width="196.452" height="415.31" x="-47.609" y="253.468" fill="#c5e6ed"/><rect width="224.47" height="20.199" x="-61.618" y="243.368" fill="#d7f2f9"/><rect width="196.452" height="415.31" x="27.933" y="253.468" fill="#d7f2f9"/><rect width="196.452" height="8.638" x="27.933" y="315.201" fill="#fff"/><rect width="196.452" height="8.638" x="27.933" y="385.572" fill="#fff"/><rect width="196.452" height="8.637" x="27.933" y="455.943" fill="#fff"/><rect width="196.452" height="8.638" x="27.933" y="526.313" fill="#fff"/><rect width="196.452" height="8.638" x="27.933" y="596.685" fill="#fff"/><rect width="415.31" height="8.637" x="-117.798" y="456.804" fill="#fff" transform="rotate(90 89.857 461.123)"/><rect width="415.31" height="8.637" x="-45.193" y="456.804" fill="#fff" transform="rotate(90 162.462 461.123)"/><rect width="224.47" height="20.199" x="13.924" y="243.368" fill="#c5e6ed"/><rect width="69.752" height="551.917" x="1004.612" y="65.791" fill="#d7f2f9"/><polygon fill="#fcfcfe" points="1092.923 65.791 1074.365 65.791 1074.365 617.708 1214.377 617.708 1214.377 117.543 1092.923 65.791"/><rect width="103.875" height="27.168" x="1074.365" y="139.239" fill="#ebfbff"/><rect width="103.875" height="27.168" x="1110.118" y="213.523" fill="#ebfbff"/><rect width="43.03" height="15.548" x="1013.52" y="252.149" fill="#ebfbff"/><rect width="43.03" height="15.548" x="1013.52" y="450.441" fill="#ebfbff"/><rect width="51.938" height="27.168" x="1021.588" y="94.508" fill="#ebfbff"/><rect width="51.938" height="27.168" x="1021.588" y="309.76" fill="#ebfbff"/><rect width="51.938" height="27.168" x="1150.94" y="452.405" fill="#ebfbff"/><rect width="103.875" height="27.168" x="1073.034" y="347.696" fill="#ebfbff"/><rect width="56.856" height="449.869" x="467.9" y="169.739" fill="#d7f2f9"/><polygon fill="#fcfcfe" points="452.773 169.739 467.9 169.739 467.9 619.608 353.776 619.608 353.776 211.922 452.773 169.739"/><rect width="84.669" height="22.145" x="383.231" y="229.607" fill="#ebfbff" transform="rotate(180 425.565 240.679)"/><rect width="84.669" height="22.145" x="354.089" y="290.156" fill="#ebfbff" transform="rotate(180 396.423 301.229)"/><rect width="35.074" height="12.674" x="482.421" y="321.64" fill="#ebfbff" transform="rotate(180 499.958 327.977)"/><rect width="35.074" height="12.674" x="482.421" y="483.269" fill="#ebfbff" transform="rotate(180 499.958 489.606)"/><rect width="42.334" height="22.145" x="468.584" y="193.147" fill="#ebfbff" transform="rotate(180 489.752 204.219)"/><rect width="42.334" height="22.145" x="468.584" y="368.6" fill="#ebfbff" transform="rotate(180 489.752 379.672)"/><rect width="42.335" height="22.145" x="363.149" y="484.87" fill="#ebfbff" transform="rotate(180 384.316 495.942)"/><rect width="84.669" height="22.145" x="384.316" y="399.521" fill="#ebfbff" transform="rotate(180 426.65 410.593)"/><polygon fill="#fcfcfe" points="340.012 606.29 239.269 606.29 63.795 0 164.539 0 340.012 606.29" opacity=".46"/><polygon fill="#fcfcfe" points="443.221 606.29 399.409 606.29 223.935 0 267.748 0 443.221 606.29" opacity=".46"/><polygon fill="#fcfcfe" points="690.415 606.29 589.671 606.29 414.198 0 514.942 0 690.415 606.29" opacity=".46"/><polygon fill="#fcfcfe" points="1159.697 606.29 1058.953 606.29 883.479 0 984.223 0 1159.697 606.29" opacity=".46"/><polygon fill="#fcfcfe" points="793.624 606.29 749.811 606.29 574.338 0 618.15 0 793.624 606.29" opacity=".46"/><polygon fill="#c5e6ed" points="916.299 251.013 915.384 649.622 959.278 649.719 960.27 235.55 915.883 251.012 916.299 251.013"/><polygon fill="#d7f2f9" points="799.118 649.366 915.384 649.622 916.299 251.013 799.118 250.755 799.118 649.366"/><polygon fill="#fff" points="799.118 250.491 799.118 250.655 916.299 251.013 960.223 235.55 840.734 235.55 799.118 250.491"/><rect width="1159.001" height="139.327" y="631.673" fill="#d7f2f9"/><path fill="#c5e6ed" d="M1142.147,700.7491c0,12.3349-264.5215,22.3349-590.8262,22.3349-326.3042,0-590.8261-10-590.8261-22.3349,0-12.336,264.5219-22.336,590.8261-22.336C877.6255,678.4131,1142.147,688.4131,1142.147,700.7491Z"/><path fill="#c5e6ed" d="M163.9507,645.1475c0,6.6484-115.0967,12.0391-215.0996,12.0391-100.0039,0-181.0723-5.3907-181.0723-12.0391,0-6.6494,81.0684-12.0391,181.0723-12.0391C48.854,633.1084,163.9507,638.4981,163.9507,645.1475Z"/><rect width="1159.001" height="26.416" y="605.257" fill="#c5e6ed"/><rect width="1159.001" height="5.213" y="626.46" fill="#add6db"/><rect width="22.352" height="606.29" x="260.202" fill="#c5e6ed"/><rect width="7.064" height="606.29" x="275.49" fill="#add6db"/><rect width="22.352" height="606.29" x="568.324" fill="#c5e6ed"/><rect width="7.064" height="606.29" x="583.612" fill="#add6db"/><rect width="22.352" height="606.29" x="876.447" fill="#c5e6ed"/><rect width="7.064" height="606.29" x="891.735" fill="#add6db"/><path fill="#d7f2f9" d="M765.4771,99.333a16.33885,16.33885,0,1,1,16.3388,16.3379A16.34,16.34,0,0,1,765.4771,99.333Z"/><path fill="#fff" d="M781.5933,109.5567c3.8677-.6983,9.1841-3.7393,10.1826-7.8272.356-1.459,2.6074-.8408,2.251.6211-1.1914,4.874-7.1382,8.6133-11.813,9.457C780.7451,112.0733,780.1148,109.8242,781.5933,109.5567Z"/><path fill="url(#a)" d="M779.0738,43.9453V-94.7451h8.2231V43.9453C795.1441,53.9092,771.2271,53.9102,779.0738,43.9453Z"/><path fill="#c5e6ed" d="M719.2993,100.8428c32.5948-24.5576,51.9278-46.9326,59.7745-56.8975h8.2231c7.8472,9.9639,27.1792,32.3399,59.7754,56.8975Z"/><path fill="#d7f2f9" d="M350.8277,99.333a16.3391,16.3391,0,1,1,16.3388,16.3379A16.34,16.34,0,0,1,350.8277,99.333Z"/><path fill="#fff" d="M366.9449,109.5567c3.8671-.6983,9.1835-3.7393,10.1821-7.8272.3559-1.459,2.6074-.8408,2.2505.6211-1.1905,4.874-7.1377,8.6133-11.8125,9.457C366.0962,112.0733,365.4659,109.8242,366.9449,109.5567Z"/><path fill="url(#c)" d="M364.4248,43.9453V-94.7451h8.2232V43.9453C380.4947,53.9092,356.5786,53.9102,364.4248,43.9453Z"/><path fill="#c5e6ed" d="M304.6499,100.8428c32.5952-24.5576,51.9287-46.9326,59.7749-56.8975h8.2232c7.8467,9.9639,27.1792,32.3399,59.7754,56.8975Z"/><path fill="#add6db" d="M1215.6021,466.2207c-.2329-7.0322-12.1592-10.3271-17.2232-11.1357-1.3676-.2168-2.7641-.3818-4.1757-.4815-.4356-.0449-.8853-.0634-1.3355-.083a62.13323,62.13323,0,0,0-15.7373,1.2657c-.7895,2.375-2.9741,7.7714-3.2007,7.3115a27.27528,27.27528,0,0,1-2.0244-6.0108c-1.6538.4854-3.2827.9981-4.8774,1.6192-.1026,3.5273-.795,11.5-1.0787,10.8789a35.18025,35.18025,0,0,1-2.729-9.3066c-1.6904.7617-3.3457,1.6035-4.9394,2.5156q-.71115.40575-1.3838.8144a56.37589,56.37589,0,0,0-4.9482,3.375c-.4239.3125-.837.6524-1.2491.9922a45.94493,45.94493,0,0,0-5.4301,5.1397c-.7271.8027-1.4165,1.6328-2.0943,2.4912-.5293,4.2226-1.3261,13.5263-1.6963,13.1406a12.803,12.803,0,0,1-2.9404-5.9707,43.595,43.595,0,0,0-4.6821,14.0996c-1.0161,7.0723,3.0815,19.4795,5.7573,26.2578.7773,1.9639,1.4243,3.4395,1.8003,4.1992a30.18835,30.18835,0,0,0-2.061,7.3584,127.50789,127.50789,0,0,0-1.0489,18.0586h-7.9853a357.27815,357.27815,0,0,1-4.7871-53.6396c3.5771-8.5479,11.0507-14.5508,16.4209-21.9121a73.97934,73.97934,0,0,0,7.3169-12.294,37.8508,37.8508,0,0,1-9.604,2.3008c-.8086.0752,11.1567-13.0674,15.4687-20.2119a98.87043,98.87043,0,0,0,1.6314-20.7227,18.952,18.952,0,0,1-10.9761,3.7198c-.7451-.0049,6.602-8.6143,9.6352-12.8545.2935-.3985.5503-.8116.8062-1.2246-.5972-7.7071-1.4077-15.5703-2.7827-23.2412-.1441-.8233-.2896-1.6641-.4683-2.4825-.3691-1.9111-.7739-3.8164-1.2275-5.6806-1.0484-4.3682-9.3135-19.6358-12.9414-20.1641-3.7383-.5703-6.3057,3.707-8.3907,6.2305-1.5869,1.8818-3.1132,3.8291-4.6396,5.7763.9883,6.0909,2.5952,19.4297,2.0952,18.7579a48.42436,48.42436,0,0,1-6.7192-12.5088c-.2451.3574-.5274.7002-.7715,1.0576-6.082,8.6631-12.3467,18.0781-16.001,28.1396a48.01877,48.01877,0,0,0-2.6875,14.8223c5.1563,7.9805,15.6895,25.3027,14.9326,24.8789a62.86864,62.86864,0,0,1-14.3921-11.5449c.0913.9931.1983,1.9668.3072,2.958.2968,2.706.6045,5.4502.9453,8.2119a30.03653,30.03653,0,0,0-3.1231-3.9941c-5.9511-6.3252-13.9384-11.2832-21.5571-15.7373-.3091-.1846-.646-.3477-.9556-.5332a38.52452,38.52452,0,0,1-2.1748,11.6689c-.2348.6738-2.6396-9.8916-3.5219-14.8018-1.8482-.9482-3.6968-1.8955-5.5777-2.7724-2.4853-1.1914-5.8769-3.5381-8.8935-1.8457-2.9346,1.622-5.6436,15.8857-5.2998,19.5224.1416,1.5537.3364,3.1221.562,4.6827.0796.6757.1938,1.3564.3042,2.0234a168.32192,168.32192,0,0,0,4.205,18.4023c.335.2246.67.4473,1.0323.6485,3.7768,2.1601,12.457,6.1465,11.8242,6.4023a18.69322,18.69322,0,0,1-10.3809.9141,69.57584,69.57584,0,0,0,7.2456,15.0195c5.6851,3.9102,19.5718,9.7422,18.8628,9.959a38.26353,38.26353,0,0,1-8.8134,1.5156,56.74524,56.74524,0,0,0,9.6948,6.7647c6.6753,3.7334,14.7348,5.7558,20.1933,11.0205a242.33437,242.33437,0,0,1,9.2788,32.7685h-12.2548l-.0284.0557c-.6879,1.543-19.04,42.7832,6.1426,81.0664h-1.6035a2.40235,2.40235,0,0,0,0,4.8047h40.1841a2.40235,2.40235,0,0,0,0-4.8047h-1.5718a79.18366,79.18366,0,0,0,8.5567-17.2109v-.0284a81.63507,81.63507,0,0,0,4.6113-24.5185,94.279,94.279,0,0,0-7.085-39.3643h-13.0986c.0449-3.622.1284-7.2431.29-10.8603.2173-4.8633.6563-9.75,2.4903-14.2598a1.98223,1.98223,0,0,0,.5576-.5312c7.7666-11.0996,15.5283-22.7149,24.5263-32.7823,7.6387-8.539,17.7188-12.5029,28.042-16.4326,4.6651-1.7734,19.3594-4.9346,19.4532-11.4648A.97049.97049,0,0,0,1215.6021,466.2207Zm-110.3106-2.9951c.5743,3.1651,1.2598,6.3028,2.0699,9.3906a50.64514,50.64514,0,0,1-6.1783,8.4786C1100.77,481.5479,1103.2012,471.3565,1105.2915,463.2256Zm4.1426,58.4766a.57388.57388,0,0,0,.4531-.3028c5.2183-9.7353,5.9727-20.0146,4.9229-30.1523a51.3088,51.3088,0,0,0,8.4321,10.918.56668.56668,0,0,0,.5806.1445,363.12,363.12,0,0,0,4.7119,50.4404h-10.502A246.95006,246.95006,0,0,0,1109.4341,521.7022Z"/><path fill="#76b1c1" d="M156.5503,399.7705c-6.0512-1.2636-12.3169,2.8233-15.5346,7.6329a1.67335,1.67335,0,0,0-.1626,1.7187q-4.01955,2.32185-7.834,4.9189a12.83663,12.83663,0,0,0,.457-5.5625c-.4629-3.0009-2.8389-5.8681-6.1196-5.6201-3.0274.2295-4.9947,3.1934-5.0366,6.0489-.0533,3.583,2.0371,7.1084,4.2021,9.8994a129.70363,129.70363,0,0,0-12.1191,10.6806c1.479-5.4697.2119-12.0263-6.2637-12.4707-9.5068-.6523-2.3008,14.6455-.0405,18.2217.0268.041.062.0586.0903.0947a2.05987,2.05987,0,0,0-.1318.9746c-2.6875,3.0879-5.2149,6.3077-7.6016,9.625-1.7847-5.6015-5.5356-15.7861-10.5796-11.2714-6.043,5.4091,3.1401,13.3525,6.6421,17.038q-3.0945,4.80915-5.7593,9.8731c-3.022-2.5986-3.2246-7.5576-6.0161-10.4639-2.5727-2.6787-8.2627-4.2754-11.0605-1.0097-2.6719,3.1201.4892,8.332,2.5229,10.9375a19.39984,19.39984,0,0,0,11.3511,7.0351,134.13277,134.13277,0,0,0-5.0176,12.6514c-1.4404-3.3975-3.0791-7.2539-6.0527-9.0371-2.8457-1.708-6.5596-1.1006-8.1494,1.9619-3.6177,6.9678,5.2392,14.1113,11.1933,16.6631.0088.1006-.0083.1894.0069.2939.0009.0059.0048.0078.0058.0137q-1.3593,5.25435-2.2851,10.6221a17.75058,17.75058,0,0,0-5.42-4.9151c-2.563-1.376-6.2841-2.082-8.6762.0244-2.4229,2.1338-1.5103,5.6016.7016,7.4737,2.9287,2.4785,7.4771,3.6074,11.1621,4.207a2.29408,2.29408,0,0,0,1.2803-.1582,125.67336,125.67336,0,0,0-.5073,25.3818c.2134,2.5674,4.2466,2.5889,4.0307,0a123.01135,123.01135,0,0,1,.627-26.0341c3.5605-.1094,21.1357-1.3379,15.9629-7.5166-1.8057-2.1573-6.7056-2.0811-9.1533-1.6348-2.5909.4717-4.2124,2.0967-5.9619,3.6064q.87885-5.01555,2.1464-9.9384c5.5323-1.0928,21.8511-4.7901,15.8384-10.6358-2.2895-2.2246-7.3403-1.709-10.039-.6924a10.74686,10.74686,0,0,0-2.8716,1.7022,131.4891,131.4891,0,0,1,5.1206-12.8477c3.9917,1.2217,21.2329,3.3867,19.2646-4.8711-1.3227-5.5478-10.4448-3.1914-16.4463-.998q2.4441-4.6275,5.2495-9.0527c.0225.0068.0489.0039.0723.0097,3.377,3.5742,6.6016,4,11.4932,3.3184,3.3452-.4668,9.3447-1.2012,10.2573-5.3057.9526-4.2881-3.7529-4.9463-6.8267-5.3398a21.28576,21.28576,0,0,0-11.1821,1.6377q3.6849-5.168,7.8706-9.9649c3.3765,1.5381,6.9082,2.874,10.646,2.8838,2.8511.0078,7.3975-.7334,7.9419-4.2197.9751-6.249-6.5107-6.1397-12.626-5.0039a125.69773,125.69773,0,0,1,10.7588-9.6172,2.24068,2.24068,0,0,0,.3438.3555c2.7968,2.0791,5.7978,4.1738,9.3183,4.7246,3.1914.498,5.8955-.5586,8.6768-2.0176a2.03754,2.03754,0,0,0,.9258-2.2754c-1.3726-4.5068-7.9473-5.3516-13.125-5.2988,2.8481-1.9844,5.7636-3.8867,8.7954-5.6367a1.90568,1.90568,0,0,0,.2661-.2354,17.51717,17.51717,0,0,0,5.332,1.3555,9.82429,9.82429,0,0,0,7.8946-2.586c1.6962-1.5244,4.208-4.1552,4.3857-6.5605C160.9727,402.0284,158.8179,400.2432,156.5503,399.7705Z"/><path fill="#76b1c1" d="M-36.98,399.7705c6.0518-1.2636,12.3169,2.8233,15.5347,7.6329a1.67357,1.67357,0,0,1,.1626,1.7187q4.01955,2.32185,7.834,4.9189a12.8519,12.8519,0,0,1-.457-5.5625c.4633-3.0009,2.8388-5.8681,6.1201-5.6201,3.0268.2295,4.9941,3.1934,5.0361,6.0489.0537,3.583-2.0366,7.1084-4.2012,9.8994A129.76912,129.76912,0,0,1,5.1675,429.4873c-1.4785-5.4697-.2109-12.0263,6.2642-12.4707,9.5063-.6523,2.3003,14.6455.0405,18.2217-.0273.041-.0625.0586-.0908.0947a2.05365,2.05365,0,0,1,.1318.9746c2.6875,3.0879,5.2149,6.3077,7.6021,9.625,1.7846-5.6015,5.5356-15.7861,10.5791-11.2714,6.0434,5.4091-3.1402,13.3525-6.6411,17.038q3.09375,4.80915,5.7587,9.8731c3.0215-2.5986,3.2247-7.5576,6.0162-10.4639,2.5727-2.6787,8.2622-4.2754,11.06-1.0097,2.6719,3.1201-.4888,8.332-2.5224,10.9375a19.40136,19.40136,0,0,1-11.3511,7.0351,133.99416,133.99416,0,0,1,5.0171,12.6514c1.4404-3.3975,3.0791-7.2539,6.0532-9.0371,2.8457-1.708,6.5591-1.1006,8.1489,1.9619,3.6177,6.9678-5.2392,14.1113-11.1929,16.6631-.0083.1006.0079.1894-.0073.2939-.0005.0059-.0049.0078-.0053.0137q1.3593,5.25435,2.2851,10.6221a17.74847,17.74847,0,0,1,5.4194-4.9151c2.5635-1.376,6.2842-2.082,8.6763.0244,2.4233,2.1338,1.5108,5.6016-.7017,7.4737-2.9287,2.4785-7.4765,3.6074-11.1621,4.207a2.29385,2.29385,0,0,1-1.2802-.1582,125.60046,125.60046,0,0,1,.5073,25.3818c-.2134,2.5674-4.2461,2.5889-4.0308,0a123.00473,123.00473,0,0,0-.6269-26.0341c-3.5606-.1094-21.1358-1.3379-15.9629-7.5166,1.8056-2.1573,6.706-2.0811,9.1533-1.6348,2.5908.4717,4.2129,2.0967,5.9624,3.6064q-.8796-5.01555-2.147-9.9384c-5.5317-1.0928-21.8506-4.7901-15.8379-10.6358,2.2891-2.2246,7.3399-1.709,10.0381-.6924a10.73566,10.73566,0,0,1,2.8721,1.7022,131.61143,131.61143,0,0,0-5.1201-12.8477c-3.9917,1.2217-21.2334,3.3867-19.2647-4.8711,1.3223-5.5478,10.4444-3.1914,16.4463-.998q-2.44485-4.6275-5.249-9.0527c-.0234.0068-.0498.0039-.0732.0097-3.3765,3.5742-6.6016,4-11.4932,3.3184-3.3452-.4668-9.3438-1.2012-10.2568-5.3057-.9532-4.2881,3.7529-4.9463,6.8261-5.3398a21.28731,21.28731,0,0,1,11.1826,1.6377q-3.6855-5.168-7.871-9.9649c-3.376,1.5381-6.9082,2.874-10.646,2.8838-2.8511.0078-7.3975-.7334-7.9414-4.2197-.9751-6.249,6.5102-6.1397,12.6254-5.0039a125.62078,125.62078,0,0,0-10.7587-9.6172,2.24509,2.24509,0,0,1-.3438.3555c-2.7964,2.0791-5.7979,4.1738-9.3179,4.7246-3.1919.498-5.896-.5586-8.6767-2.0176a2.03714,2.03714,0,0,1-.9263-2.2754c1.3726-4.5068,7.9473-5.3516,13.1245-5.2988-2.8472-1.9844-5.7632-3.8867-8.7944-5.6367a1.89907,1.89907,0,0,1-.2666-.2354,17.51348,17.51348,0,0,1-5.3321,1.3555,9.82532,9.82532,0,0,1-7.8945-2.586c-1.6963-1.5244-4.2075-4.1552-4.3857-6.5605C-41.4023,402.0284-39.2475,400.2432-36.98,399.7705Z"/><path fill="#9cc6d4" d="M97.8531,368.794a19.333,19.333,0,0,0-4.7002,1.2177c1.0976-1.6552,2.1567-3.333,3.3086-4.958a1.66626,1.66626,0,0,0,1.8686-.5058c3.2217-3.8945,16.437-17.2149,6.3384-21.0957a7.4478,7.4478,0,0,0-8.7012,3.1562c-2.8935,4.3936-1.5303,9.8438-2.9858,14.6426a1.80237,1.80237,0,0,0,.1655,1.5205c-1.4814,2.085-2.8623,4.2285-4.2573,6.3613-.5474-2.9033-1.4488-6.0332-3.2652-8.0166-1.8847-2.0595-5.0703-2.1171-6.6123.3887-3.1259,5.0791,1.3858,11.2725,6.1241,13.5869-1.4053,2.3203-2.7242,4.6856-4.0318,7.0557-1.3808-2.2188-2.8315-4.5957-4.7983-6.126-1.9912-1.5459-5.0869-1.916-6.9497.0752-1.9849,2.1201-1.1656,5.1758.6264,7.0986a16.788,16.788,0,0,0,8.1934,4.4991c-2.2788,4.4511-4.3438,8.9951-6.2861,13.5869a30.98137,30.98137,0,0,0-5.1387-8.958c-1.5933-1.8379-5.6348-6.041-8.4082-4.2754-3.2334,2.0586-1.3745,7.9433.2817,10.3711a27.863,27.863,0,0,0,10.2017,8.9775,2.04059,2.04059,0,0,0,.5234.1729c-1.3828,3.5957-2.6284,7.2402-3.8061,10.9033-2.2788-4.7852-6.3032-10.792-10.8599-6.6397-6.1313,5.5879,3.6758,11.9034,7.4912,14.7657.0396.0302.0869.0175.128.041a1.818,1.818,0,0,0,.4765,1.2988c-.873,3.2354-1.5967,6.5059-2.3105,9.7774-2.5352-4.7217-7.4639-10.5254-11.2188-6.1094-4.8515,5.7041,5.3154,11.6855,9.7813,13.3847-.7432,4.0967-1.3301,8.2188-1.8282,12.3516-3.3847-4.8096-10.9804-13.5732-13.0253-5.5859-.9913,3.8681.9169,7.0156,3.3935,9.7968,2.4561,2.7579,5.0752,5.1924,8.6231,6.3692-.3125,4.5283-.4454,9.0703-.461,13.6152a26.21555,26.21555,0,0,0-5.5615-4.8672c-2.1025-1.4101-5.4209-4.1806-8.1748-3.5488-6.3604,1.46-1.9424,11.0352.6474,13.7969,2.2784,2.4277,9.2989,6.0781,13.2676,4.3662.189,4.2432.5591,8.4824,1.0157,12.7168a23.92988,23.92988,0,0,0-7.6001-3.9824c-1.5166-.4659-4.0762-1.2305-6.0064-.8194a3.32249,3.32249,0,0,0-3.6919,1.8653c-4.9253,8.3281,13.0493,10.9472,18.4282,11.5566a194.07937,194.07937,0,0,0,3.814,19.0498c.6426,2.5107,4.5317,1.4463,3.8872-1.0713a190.452,190.452,0,0,1-3.873-19.2988c4.9775-2.0234,11.8994-6.4063,9.0927-11.6074-2.6054-4.8301-6.9492-.8653-10.1469,3.0117-.4117-3.9824-.7408-7.9678-.9126-11.9561a20.03848,20.03848,0,0,0,9.4052-5.4228c2.1309-2.2227,5.1934-6.1074,3.6602-9.3848-1.502-3.2129-5.6084-2.957-8.04-1.0957a21.76124,21.76124,0,0,0-5.1915,6.4834c.0186-4.2764.1377-8.5478.4244-12.8096,5.5151-1.3867,21.3715-7.705,13.666-14.0488-4.7652-3.9219-9.2554-1.2109-12.6148,2.9004.5176-4.209,1.1241-8.4062,1.8999-12.5742,3.7349-1.0781,8.2891-1.3867,11.6177-3.416,2.1743-1.3262,4.3789-4.5371,2.9526-7.1241-1.3959-2.5332-5.1635-1.2353-7.1948-.3173a29.77172,29.77172,0,0,0-5.979,4.0058c.6831-3.0742,1.3609-6.1504,2.187-9.1904,5.7725.0517,16.5157-1.0772,14.7608-7.4551-.8311-3.0224-5.1055-3.3516-7.6631-2.9111a13.04276,13.04276,0,0,0-4.5908,1.8515c.997-3.1259,2.0424-6.2382,3.1914-9.3173,4.1382.6884,9.2099,1.0556,12.8125-.9346,2.3008-1.2725,6.8994-5.7324,5.3647-8.6035-1.8716-3.501-6.9663-2.9278-10.0298-2.041a30.07972,30.07972,0,0,0-4.08,1.5195c1.706-3.9151,3.4921-7.7988,5.4482-11.6074.0557-.0196.1108-.043.167-.0684a6.97646,6.97646,0,0,0,2.873,1.2119,30.30106,30.30106,0,0,0,9.272.6856c1.8262-.2041,3.6304-1.126,3.6773-3.21.0434-1.8555-1.7022-3.1387-3.1275-4.0684-3.0249-1.9746-6.4111-1.8134-9.5693-.6992,1.0825-1.9375,2.147-3.8828,3.2954-5.7871a2.1144,2.1144,0,0,0,.5586-.2871c4.0483,1.8067,8.7021,2.6836,13.0517,1.4434,2.8531-.8125,5.5782-3.3867,4.5791-6.6221C105.604,368.2989,100.7901,368.4522,97.8531,368.794Z"/><path fill="#ffba31" d="M103.9302,579.3369a117.03717,117.03717,0,0,1-6.6108,35.1485v.041A113.96245,113.96245,0,0,1,82.688,642.6612H34.3179c-39.583-55.8272-12.1328-117.418-11.125-119.6758l.04-.0801H93.773S105.0992,547.251,103.9302,579.3369Z"/><path fill="#f4a300" d="M97.3194,614.4854v.041A113.96245,113.96245,0,0,1,82.688,642.6612H34.3179c-39.583-55.8272-12.1328-117.418-11.125-119.6758l.04-.0801S8.3111,676.3653,97.3194,614.4854Z"/><path fill="#ffba31" d="M87.3062,646.0869H29.6997a3.44283,3.44283,0,0,1-3.4433-3.4433h0a3.44349,3.44349,0,0,1,3.4433-3.4434H87.3062a3.44381,3.44381,0,0,1,3.4433,3.4434h0A3.44315,3.44315,0,0,1,87.3062,646.0869Z"/></g><path fill="#c5e6ed" d="M409.3677,349.6621H796.9815a10.2168,10.2168,0,0,1,10.2168,10.2168V692.2198a7.999,7.999,0,0,1-7.999,7.999H407.1499a7.999,7.999,0,0,1-7.999-7.999V359.8789A10.2168,10.2168,0,0,1,409.3677,349.6621Z"/><path fill="#fcfcfe" d="M400.7202,349.6621H788.334a10.2163,10.2163,0,0,1,10.2163,10.2163V692.2198a7.999,7.999,0,0,1-7.999,7.999H398.502a7.9986,7.9986,0,0,1-7.9986-7.9986V359.8789A10.2168,10.2168,0,0,1,400.7202,349.6621Z"/><path fill="#f06a4a" d="M400.7202,349.6621H788.334a10.2163,10.2163,0,0,1,10.2163,10.2163v24.9742a0,0,0,0,1,0,0H390.5034a0,0,0,0,1,0,0V359.8789A10.2168,10.2168,0,0,1,400.7202,349.6621Z"/><path fill="#fff" d="M446.7964,367.2569a5.4048,5.4048,0,1,1,5.4048,5.4052A5.40481,5.40481,0,0,1,446.7964,367.2569Z"/><path fill="#fff" d="M425.9986,367.2569a5.40475,5.40475,0,1,1,5.4052,5.4052A5.40489,5.40489,0,0,1,425.9986,367.2569Z"/><path fill="#fff" d="M405.2007,367.2569a5.4048,5.4048,0,1,1,5.4048,5.4052A5.40481,5.40481,0,0,1,405.2007,367.2569Z"/><polygon fill="#fff" points="772.796 363.306 775.471 360.631 779.294 364.453 783.115 360.631 785.791 363.306 781.968 367.128 785.791 370.95 783.115 373.625 779.294 369.803 775.471 373.625 772.796 370.95 776.618 367.128 772.796 363.306"/><path fill="#d7f2f9" d="M418.0567,424.9307H774.876a8.6548,8.6548,0,0,1,8.6548,8.6548V672.7266a8.6553,8.6553,0,0,1-8.6553,8.6553H418.0567a8.6553,8.6553,0,0,1-8.6553-8.6553V433.586A8.6553,8.6553,0,0,1,418.0567,424.9307Z"/><path fill="#c5e6ed" d="M764.5913,655.6983c0,3.9668-75.7968,7.1826-169.2959,7.1826-93.5,0-169.2968-3.2158-169.2968-7.1826,0-3.9658,75.7968-7.1817,169.2968-7.1817C688.7945,648.5166,764.5913,651.7325,764.5913,655.6983Z"/><polygon fill="#c5e6ed" points="417.892 402.053 510.567 402.053 510.616 399.3 417.94 399.3 417.892 402.053"/><polygon fill="#c5e6ed" points="552.115 402.053 579.453 402.053 579.502 399.3 552.163 399.3 552.115 402.053"/><polygon fill="#c5e6ed" points="417.719 411.92 449.13 411.92 449.179 409.166 417.767 409.166 417.719 411.92"/><polygon fill="#c5e6ed" points="463.818 411.92 579.281 411.92 579.329 409.166 463.866 409.166 463.818 411.92"/><polygon fill="#c5e6ed" points="770.752 409.167 678.077 409.167 678.029 411.92 770.704 411.92 770.752 409.167"/><polygon fill="#c5e6ed" points="636.529 409.167 609.191 409.167 609.143 411.92 636.481 411.92 636.529 409.167"/><polygon fill="#c5e6ed" points="770.925 399.3 739.513 399.3 739.465 402.054 770.877 402.054 770.925 399.3"/><polygon fill="#c5e6ed" points="724.826 399.3 609.363 399.3 609.315 402.054 724.778 402.054 724.826 399.3"/><polygon fill="#f5e9df" points="208.617 679.749 197.348 645.814 225.677 638.863 233.913 670.575 208.617 679.749"/><path fill="#9cc6d4" d="M207.2945,675.7666l25.9785-7.6533,42.707,9.4756a11.655,11.655,0,0,1,8.9126,9.1367l.1489.7578a3.94045,3.94045,0,0,1-3.1093,4.625l-64.8155,12.7051a4.05088,4.05088,0,0,1-4.7549-3.1963Z"/><path fill="#2e3248" d="M212.3618,701.6172l-.6289-3.207,72.8799-13.1143.4287,2.1875a3.94045,3.94045,0,0,1-3.1093,4.625l-64.8155,12.7051A4.05088,4.05088,0,0,1,212.3618,701.6172Z"/><path fill="#7cb3c1" d="M241.8824,675.6719a3.44022,3.44022,0,1,1-4.0376-2.7139A3.44124,3.44124,0,0,1,241.8824,675.6719Z"/><path fill="#7cb3c1" d="M251.9239,677.8955a3.44,3.44,0,1,1-4.0376-2.7148A3.44,3.44,0,0,1,251.9239,677.8955Z"/><path fill="#7cb3c1" d="M261.062,679.6094a3.43992,3.43992,0,1,1-4.0371-2.7139A3.44113,3.44113,0,0,1,261.062,679.6094Z"/><path fill="#2e3248" d="M238.5064,677.833a1.47553,1.47553,0,0,1-.5127-.0908,1.49933,1.49933,0,0,1-.897-1.9219l2.2778-6.2617a1.5,1.5,0,0,1,2.8194,1.0254l-2.2779,6.2617A1.4999,1.4999,0,0,1,238.5064,677.833Z"/><path fill="#2e3248" d="M248.5484,680.0567a1.47553,1.47553,0,0,1-.5127-.0908,1.49941,1.49941,0,0,1-.897-1.9219l2.2764-6.2578a1.5,1.5,0,0,1,2.8193,1.0254l-2.2764,6.2578A1.5,1.5,0,0,1,248.5484,680.0567Z"/><path fill="#2e3248" d="M258.0113,681.3897a1.47553,1.47553,0,0,1-.5127-.0908,1.49937,1.49937,0,0,1-.897-1.9219l2.0181-5.5479a1.5,1.5,0,0,1,2.8193,1.0254l-2.0181,5.5479A1.50013,1.50013,0,0,1,258.0113,681.3897Z"/><polygon fill="#f5e9df" points="83.069 644.462 100.385 613.177 124.695 629.296 106.958 656.844 83.069 644.462"/><path fill="#9cc6d4" d="M86.1509,638.7168l23.2344,13.9151,21.9775,37.8242a11.65439,11.65439,0,0,1-.6777,12.7451l-.457.624a3.94046,3.94046,0,0,1-5.5079.8477L71.4497,665.625a4.0507,4.0507,0,0,1-.872-5.6621Z"/><path fill="#2e3248" d="M70.5777,659.9629l1.9316-2.6357,59.0371,44.6992-1.3183,1.7988a3.94046,3.94046,0,0,1-5.5079.8477L71.4497,665.625A4.0507,4.0507,0,0,1,70.5777,659.9629Z"/><path fill="#7cb3c1" d="M109.6621,664.085a3.44,3.44,0,1,1-.7407-4.8086A3.44084,3.44084,0,0,1,109.6621,664.085Z"/><path fill="#7cb3c1" d="M114.833,672.9756a3.44021,3.44021,0,1,1-.7407-4.8086A3.44086,3.44086,0,0,1,114.833,672.9756Z"/><path fill="#7cb3c1" d="M119.7661,680.8565a3.44024,3.44024,0,1,1-.7412-4.8086A3.44048,3.44048,0,0,1,119.7661,680.8565Z"/><path fill="#2e3248" d="M106.8882,663.5508a1.4999,1.4999,0,0,1-.5786-2.8838l6.1484-2.5693a1.49962,1.49962,0,1,1,1.1558,2.7676l-6.1479,2.5693A1.49049,1.49049,0,0,1,106.8882,663.5508Z"/><path fill="#2e3248" d="M112.0591,672.4414a1.49968,1.49968,0,0,1-.5786-2.8838l6.1445-2.5673a1.49958,1.49958,0,1,1,1.1558,2.7675l-6.1441,2.5674A1.49146,1.49146,0,0,1,112.0591,672.4414Z"/><path fill="#2e3248" d="M117.4932,680.3028a1.4999,1.4999,0,0,1-.5786-2.8838l5.4472-2.2764a1.49972,1.49972,0,1,1,1.1563,2.7676l-5.4473,2.2764A1.48964,1.48964,0,0,1,117.4932,680.3028Z"/><rect width="124.729" height=".999" x="108.681" y="503.128" fill="#2e3248" transform="rotate(-83.489 171.046 503.627)"/><path fill="#3c4159" d="M166.8687,452.5684c-10.8941,21.873-87.6509,172.6592-87.6509,172.6592l55.6455,34.8515s61.5689-94.5976,77.0962-122.3271c.0781-.1416-.0796-22.667,0-22.8076C202.3472,488.083,167.8316,450.6348,166.8687,452.5684Z"/><path fill="#2e3248" d="M187.8164,578.6494l-52.9531,81.4297s8.2095-63.4463,5.8526-87.957c-2.357-24.5098-6.9395-87.8437-6.9395-87.8437Z"/><path fill="#3c4159" d="M217.396,392.6231c-18.3042-10.2412-41.6284-4.6162-56.7021,7.3408-15.2403,12.0898-19.3828,32.29-18.001,50.752,1.8311,24.4687,18.9961,130.4726,31.1777,130.4707,29.5938-.0049,42.2744-50.3838,44.8291-77.2764C222.4937,463.9717,222.2232,433.294,217.396,392.6231Z"/><path fill="#3c4159" d="M242.688,651.3174s-58.7309-236.2724-66.875-244.959c-15.3291-16.3525-61.0996,3.9356-61.6523,5.1367-8.5567,18.5938,66.6172,256.1504,66.6172,256.1504Z"/><polygon fill="#2e3248" points="242.325 651.411 187.574 435.989 188.301 435.804 243.052 651.226 242.325 651.411"/><path fill="#2e3248" d="M180.419,667.7539c-.3653-1.2089-36.6665-121.3505-48.1992-162.8545-9.7906-35.2373-18.003-66.2636-19.3384-89.0957l.749-.0429c1.3306,22.7578,9.5332,53.7422,19.312,88.9375,11.5303,41.4961,47.8291,161.6299,48.1943,162.8388Z"/><path fill="#f5e9df" d="M185.5772,333.1621l59.0864,45.2901,20.4971-27.8252-53.3526-47.8174c-.0957-.0889-.2002-.1641-.2978-.25C208.2246,306.793,190.9097,327.1729,185.5772,333.1621Z"/><path fill="#f5e9df" d="M263.6314,385.1553l72.0566-28.2949-6.7373-26.7168-74.8032,21.7812-7.8179,21.877A12.35958,12.35958,0,0,0,263.6314,385.1553Z"/><path fill="#76b1c1" d="M172.6265,293.7901c-7.4404,8.1992-8.1006,19.8183-1.4741,25.9531l24.8969,23.0498c1.5459,1.4307,8.8311-4.0557,16.2715-12.2549,7.4409-8.1982,12.2198-16.0058,10.6729-17.4375l-24.8965-23.0488C191.4712,283.917,180.0669,285.5909,172.6265,293.7901Z"/><path fill="#9cc6d4" d="M221.5161,404.4522l-109.7832,8.3535s-1.083-82.3496,4.6534-106.9648c3.2793-14.0713,13.8017-20.917,20.3632-20.917h43.7842c9.2783,0,20.8096,8.3828,24.9131,22.7295C211.4141,328.5117,221.5161,404.4522,221.5161,404.4522Z"/><path fill="#eadace" d="M157.6245,257.7188s1.3038,16.2637,1.8101,27.1972c2.228,5.5049,18.8115,6.6329,21.0645,2.7852l-1.7374-21.6689Z"/><path fill="#f5e9df" d="M190.8033,255.3076c0,11.9708-5.501,23.0674-13.9014,23.0674-6.9336,0-20.6348-11.2119-20.6348-23.1826,0-11.9697,7.4893-21.6738,16.728-21.6738C188.5464,233.5186,190.8033,243.3379,190.8033,255.3076Z"/><path fill="#2e3248" d="M176.9019,255.3076a1.60389,1.60389,0,1,1-1.5781-1.8876A1.75459,1.75459,0,0,1,176.9019,255.3076Z"/><ellipse cx="185.938" cy="254.254" fill="#2e3248" rx="1.579" ry="1.888"/><path fill="#2e3248" d="M180.1949,265.4776c-.9126,0-1.7374-.0733-2.0401-.1035l.0752-.7461c1.605.1601,4.0606.165,4.5044-.3272a.09045.09045,0,0,0,.0254-.0957c-.2847-1.3672-1.5015-5.8144-1.5137-5.8594l.7237-.1972c.0502.1836,1.2348,4.5136,1.5244,5.9043a.82747.82747,0,0,1-.2027.749C182.8023,265.3457,181.4195,265.4776,180.1949,265.4776Z"/><path fill="#2e3248" d="M179.8047,271.3975h-.0249a4.73965,4.73965,0,0,1-3.1567-1.5039l.5581-.501a4.03364,4.03364,0,0,0,2.6094,1.2549h.0131a3.35565,3.35565,0,0,0,2.4532-1.2578l.5517.5078A4.066,4.066,0,0,1,179.8047,271.3975Z"/><path fill="#2e3248" d="M172.1172,252.1817l-.6133-.4317a4.44109,4.44109,0,0,1,3.0406-2.0576,4.82374,4.82374,0,0,1,3.3838,1.0479l-.4834.5732a4.05636,4.05636,0,0,0-2.8106-.876A3.73114,3.73114,0,0,0,172.1172,252.1817Z"/><path fill="#2e3248" d="M183.4326,250.7735l-.5878-.4668a3.72581,3.72581,0,0,1,2.7294-1.6211,3.65634,3.65634,0,0,1,2.6363,1.1191l-.5454.5147a2.60292,2.60292,0,0,0-4.2325.4541Z"/><path fill="#76b1c1" d="M204.5894,335.8858c-2.9043-1.5684-6.0928-1.2383-9.1729-.4063a89.06679,89.06679,0,0,1-9.4448,2.336c-6.5015,1.0205-13.2095,1.2002-19.3608,3.7695a2.0927,2.0927,0,0,0-1.2461,1.2725,1.66448,1.66448,0,0,0-.2735.9296,1.80988,1.80988,0,0,0,1.7974,1.7969c.896-.084,1.7881-.1904,2.6812-.2881,11.5078-1.1093,23.3525-.6777,34.0878-5.5703a1.38907,1.38907,0,0,0,.6299-.6074A1.81414,1.81414,0,0,0,204.5894,335.8858Z"/><path fill="#f5e9df" d="M332.2066,314.5889a4.196,4.196,0,0,1-.1817,5.25,3.88733,3.88733,0,0,1,2.6216,1.5264c1.4307,2,.7832,3.8584-.8013,5.5078a2.99539,2.99539,0,0,1,2.5181,2.7929,5.137,5.137,0,0,1-1.4346,4.3916,2.58593,2.58593,0,0,1,1.981,3.8467c-2.7739,5.0049-18.729,11.7412-23.5859,13.4492-7.2149,2.5362-19.9659-18.9218-12.3775-23.5322.0445-.0332,14.8931-8.4228,14.9409-8.4541C319.6626,316.8233,328.9478,309.5723,332.2066,314.5889Z"/><path fill="#f5e9df" d="M318.9034,338.5186c-1.5806,4.3203-1.4507,9.4844-1.3189,13.7803a2.30313,2.30313,0,0,0,.0596.2412,2.62684,2.62684,0,0,0,4.5664,2.1054c2.6611-2.4443,5.7007-5.4267,5.7246-8.7519.0127-1.832-2.5537-3.7822-1.981-5.6377.7495-2.4336,3.6558-4.04,5.7183-5.2256,3.542-2.0371,3.2617-8.0205-.3994-6.5352C327.0679,330.2022,320.5982,333.8867,318.9034,338.5186Z"/><path fill="#f5e9df" d="M131.3184,330.6055l58.4585,60.6523a8.64993,8.64993,0,0,0,14.8662-6.4531l10.6094-23.9922-56.9326-58.1504c-.1998.0039-.2994.0059-.4991.0088C153.9097,307.0928,136.6831,325.2119,131.3184,330.6055Z"/><path fill="#76b1c1" d="M121.4917,292.3301c-7.6259,7.54-8.2402,19.4258-1.373,26.5479l25.8027,26.7587c1.6026,1.6622,9.083-3.1025,16.7095-10.6425,7.626-7.5401,12.5088-14.9991,10.9062-16.6602l-25.8022-26.7598C140.8672,284.4522,129.1177,284.7901,121.4917,292.3301Z"/><path fill="#2e3248" d="M146.8687,346.4668l-.0318-.0009a1.72467,1.72467,0,0,1-1.2768-.4834l.7197-.6934a.79314.79314,0,0,0,.5689.1777h.0219c2.1631,0,8.2818-3.7851,15.4073-10.8291,8.3374-8.2431,11.9668-14.8506,10.8984-15.959l-25.8018-26.7578a16.41338,16.41338,0,0,0-11.7329-4.9736,19.64372,19.64372,0,0,0-13.7978,5.7383l-.7031-.711a20.34655,20.34655,0,0,1,14.5131-6.0273,17.403,17.403,0,0,1,12.4405,5.2803l25.8017,26.7578c2.1299,2.208-3.8789,10.4062-10.915,17.3633C156.3496,341.9043,149.7359,346.4668,146.8687,346.4668Z"/><path fill="#2e3248" d="M195.9702,222.3047c-8.1386,9.1553-35.1377-6.6279-43.1064,12.6475a10.50492,10.50492,0,0,1-2.0479-7.0479c.0821-1.3076-1.958-1.2041-2.04.0967a12.337,12.337,0,0,0,2.353,8.084,20.90837,20.90837,0,0,0-5.7046,2.1514c-1.1352.666-.0419,2.3896,1.0909,1.7255a18.12773,18.12773,0,0,1,4.8261-1.8378c-2.3105,2.9941-6.7646,16.1298,7.0889,30.3613-.8057-14.2315.6445-19.4268,5.2056-25.2373,7.0132-4.1739,20.7231,3.4912,29.0766,0C197.5288,241.2354,201.5279,229.0801,195.9702,222.3047Z"/><path fill="#f5e9df" d="M162.4629,256.1397c0,3.0263-1.1128,5.9424-3.791,5.9424-2.6777,0-5.3037-2.9776-5.9067-5.9424-.606-2.9824,1.2011-5.9453,3.8789-5.9453A6.477,6.477,0,0,1,162.4629,256.1397Z"/><path fill="#f5e9df" d="M322.0503,344.0889c3.0362,1.1816,6.8975-.0117,10.4292-1.7734a26.5412,26.5412,0,0,0,4.0845-3.584c2.374-2.6494.1421-6.7813.1421-6.7813,1.7427-2.5234-.9829-5.5605-.9829-5.5605,1.9072-2.7403-2.7989-6.1699-2.7989-6.1699a4.04829,4.04829,0,0,0-1.9091-5.6211c-.8116-.2823-18.3369,1.9541-18.1202,8.1162.0918,2.4287,1.3057,3.5918,3.024,3.9463a4.75022,4.75022,0,0,0-1.1782,3.038c-.0176,2.5206,1.5126,3.5206,3.6411,3.6905a3.43638,3.43638,0,0,0-.4043,3.9258,4.09262,4.09262,0,0,0,3.5146,2.4062C320.1426,341.084,320.4927,343.4737,322.0503,344.0889Z"/><path fill="#d07d73" d="M324.7657,345.0694a7.90346,7.90346,0,0,1-2.8965-.5147,2.7366,2.7366,0,0,1-1.6416-2.0576,3.4961,3.4961,0,0,1,.3818-2.4297,4.39849,4.39849,0,0,1-3.0854-2.543,3.8848,3.8848,0,0,1-.0035-3.747,3.74271,3.74271,0,0,1-3.2797-4.0821,4.97471,4.97471,0,0,1,.8525-2.749c-1.3013-.4775-2.5996-1.6094-2.6978-4.2129a.50012.50012,0,0,1,.4805-.5185.50576.50576,0,0,1,.5186.4814c.0752,1.9893.934,3.126,2.6254,3.4756a.49969.49969,0,0,1,.2876.8037,4.2109,4.2109,0,0,0-1.0668,2.7246c-.0142,2.0039.996,3.0166,3.1811,3.1914a.49956.49956,0,0,1,.3501.8106,2.94642,2.94642,0,0,0-.3447,3.3935,3.59331,3.59331,0,0,0,3.125,2.1299.49952.49952,0,0,1,.2949.8477,2.464,2.464,0,0,0-.6411,2.2177,1.75861,1.75861,0,0,0,1.0278,1.3331c2.4234.9423,5.7959.3515,10.0225-1.7559a.49983.49983,0,1,1,.4463.8945A18.38949,18.38949,0,0,1,324.7657,345.0694Z"/><path fill="#d07d73" d="M321.4927,340.2217a.5.5,0,0,1-.228-.9453l15.2138-7.7715a.50007.50007,0,1,1,.4551.8906l-15.2138,7.7715A.49865.49865,0,0,1,321.4927,340.2217Z"/><path fill="#d07d73" d="M318.3819,333.8897a.5.5,0,0,1-.187-.9639l17.3408-7a.50013.50013,0,1,1,.374.9277l-17.3408,7A.50174.50174,0,0,1,318.3819,333.8897Z"/><path fill="#d07d73" d="M315.919,327.1612a.50015.50015,0,0,1-.1773-.9678l17.0059-6.4414a.50021.50021,0,0,1,.3545.9355l-17.0059,6.4414A.513.513,0,0,1,315.919,327.1612Z"/><path fill="#f4a300" d="M394.8247,522.4815,374.7749,475.792,279.814,516.5713l-16.7188-38.9336,24.939-181.7168,12.4429-8.8574,37.3515-16.041,63.2085,147.1914,28.8042-12.3691,16.7871,39.0918-12.4423,8.8574-16.3619,3.5117,20.0499,46.6894-12.4429,8.8575Zm-36.8369-85.7813L323.937,357.4073,304.6509,459.6045Z"/><path fill="#ffba31" d="M382.3824,531.3389l-20.0499-46.6895-94.9609,40.7793-16.7197-38.9336,37.3823-190.5742,37.3521-16.04,63.208,147.1904,28.8042-12.3691,16.7876,39.0918-28.8047,12.3691,20.0498,46.6895Zm-36.837-85.7813-34.0512-79.2929L292.2085,468.4629Z"/><path fill="#f5e9df" d="M226.9976,394.0713l47.5146-8.7334,5.42-28.9512-78.0796,2.6456-10.6109,33.5566C197.7378,397.419,218.1524,395.2071,226.9976,394.0713Z"/><path fill="#f5e9df" d="M268.0982,360.6983a1.88939,1.88939,0,0,1-.6592-.8242,2.06773,2.06773,0,0,1-.3486.0068,2.01812,2.01812,0,0,1-1.8335-2.1543q.572-3.52155,1.3159-7.0117a9.55231,9.55231,0,0,1,1.0459-3.4981c.77-1.0957,2.0664-1.3584,3.271-1.7138,4.1333-1.2207,8.3803-2.087,12.6303-.9082a1.97848,1.97848,0,0,1,1.2964,1.7812,2.0748,2.0748,0,0,1-1.1362,1.9111,27.09877,27.09877,0,0,1-4.7139,2.2881c-1.4716.542-3.0088.8496-4.3759,1.4405a2.59166,2.59166,0,0,0-1.8189,2.5693,14.84874,14.84874,0,0,1-1.8833,5.6426A2.01783,2.01783,0,0,1,268.0982,360.6983Z"/><path fill="#f5e9df" d="M306.0044,352.1006a49.958,49.958,0,0,0-24.3652.5537c-.146-.1465-.3115-.2324-.4649-.3613,1.7149-1.3525,15.6324-5.2988,24.6866-4.5713,3.5478.2852,2.7011-6.2392-.8203-6.4668-12.3125-.7949-31.0391,5.2012-38.9258,14.6914a103.64487,103.64487,0,0,1-7.7666,8.3545c-10.021,9.6592,6.8979,28.1289,19.6577,19.5332,3.4282-2.3096,5.4448-9.582,9.188-13.0498,4.5102-4.1767,11.8989-2.2588,18.1719-1.4492,3.0361.3926,2.9243-3.7822.7832-5.6065.0341.0059.0673.0049.1015.0108,2.8467.4228,2.9473-3.2158,1.1934-5.2129C310.503,358.5616,309.4947,352.8252,306.0044,352.1006Z"/><path fill="#d07d73" d="M307.4444,359.0264a.52019.52019,0,0,1-.1328-.0176c-.128-.0371-12.8423-3.4687-23.5455-.0801a.49986.49986,0,1,1-.3017-.9531c10.9912-3.4785,23.9824.0332,24.1133.0684a.50029.50029,0,0,1-.1333.9824Z"/><path fill="#d07d73" d="M285.2495,364.4707a.50015.50015,0,0,1-.2143-.9521c7.7217-3.6563,20.6894-.4131,21.2373-.2744a.49986.49986,0,0,1-.2471.9687c-.1304-.0322-13.1679-3.2949-20.5625.21A.50454.50454,0,0,1,285.2495,364.4707Z"/><path fill="#d07d73" d="M276.7368,385.3643a.49979.49979,0,0,1-.3584-.8477,41.92743,41.92743,0,0,0,6.4014-8.6113,19.90774,19.90774,0,0,1,4.8916-6.1572c4.607-3.5869,13.4815-1.5615,13.857-1.4727,1.7832.4502,4.853.7666,5.5424-.289.7657-1.1778-.6064-3.2305-1.1997-3.9219a.5013.5013,0,0,1,.2437-.8076,3.39621,3.39621,0,0,0,2.0107-1.5537c.355-.8672-.6753-2.3907-1.0644-2.8555a.5.5,0,0,1,.3325-.8184c.0469-.0068,1.3325-.206,1.293-2.4658-.0293-1.6797-2.4468-2.8135-2.8238-2.9795-4.9804-.8017-18.0044-1.334-24.5752.1963a.50013.50013,0,0,1-.3266-.9394c.122-.0577,12.3657-5.7588,24.9453-4.6172a1.80845,1.80845,0,0,0,2.0049-1.7608,3.36526,3.36526,0,0,0-2.9512-3.7138c-4.0942-.67-21.7837,1.3095-31.5122,8.5927a46.16462,46.16462,0,0,0-4.5982,4.0996c-2.1059,2.0596-3.9248,3.8379-6.0337,4.5586a.50041.50041,0,0,1-.3232-.9472c1.895-.6465,3.6387-2.3516,5.6582-4.3262a47.57574,47.57574,0,0,1,4.6978-4.1856c10.1157-7.5732,27.9384-9.4951,32.2729-8.7783a4.349,4.349,0,0,1,3.7813,4.8262,2.79368,2.79368,0,0,1-3.0874,2.6309c-7.9087-.7159-15.6919,1.331-20.2754,2.9033a96.6579,96.6579,0,0,1,20.5449.4844.46446.46446,0,0,1,.1084.0302c.1411.0576,3.4497,1.4375,3.4932,3.9082.0346,1.9805-.7989,2.8399-1.4478,3.209.5229.7695,1.2832,2.1768.8125,3.3272a3.84641,3.84641,0,0,1-1.9985,1.8818c.685.9727,1.8589,3.0264.8559,4.5674-1.2983,1.998-6.0766.8535-6.6177.7148-.0786-.0185-8.7763-2.0029-13.0053,1.291-2.1309,1.6592-3.2412,3.5215-4.647,5.8799a42.76593,42.76593,0,0,1-6.5425,8.7949A.49665.49665,0,0,1,276.7368,385.3643Z"/><path fill="#d07d73" d="M213.294,360.5176a.50012.50012,0,0,1-.0152-1l49.3604-1.4912a.51374.51374,0,0,1,.5146.4853.50031.50031,0,0,1-.4843.5147l-49.3599,1.4912Z"/><path fill="#d07d73" d="M265.1602,357.5772a.49973.49973,0,0,1-.5-.5c0-.2696.0288-6.6524,2.5527-10.1524,2.5454-3.5322,14.9321-2.9121,16.336-2.8291a.5.5,0,0,1,.4697.5284.49167.49167,0,0,1-.5283.4697c-3.6641-.2129-13.5821-.1973-15.4659,2.415-2.3374,3.2422-2.3642,9.5059-2.3642,9.5684A.49973.49973,0,0,1,265.1602,357.5772Z"/><path fill="#fff" d="M965.7705,354.6582,944.605,338.8057H805.397a5.03876,5.03876,0,0,1-5.0386-5.0391v-83.332a5.03791,5.03791,0,0,1,5.0386-5.0381H969.2061a5.03791,5.03791,0,0,1,5.0386,5.0381v83.332a5.03876,5.03876,0,0,1-5.0386,5.0391H959.896Z"/><path fill="#add6db" d="M965.7705,355.1582a.50039.50039,0,0,1-.2998-.0996L944.439,339.3047H805.397a5.5445,5.5445,0,0,1-5.5386-5.5381v-83.332a5.5445,5.5445,0,0,1,5.5386-5.5381H969.2061a5.54484,5.54484,0,0,1,5.539,5.5381v83.332a5.54484,5.54484,0,0,1-5.539,5.5381h-8.5918l5.625,15.1797a.5.5,0,0,1-.4688.6738ZM805.397,245.8965a4.54382,4.54382,0,0,0-4.5386,4.5381v83.332a4.54382,4.54382,0,0,0,4.5386,4.5381H944.6055a.50013.50013,0,0,1,.2993.0996l19.8071,14.836-5.2846-14.2618a.50058.50058,0,0,1,.4687-.6738h9.3101a4.54384,4.54384,0,0,0,4.539-4.5381v-83.332a4.54384,4.54384,0,0,0-4.539-4.5381Z"/><path fill="#f4a300" d="M706.9717,653.6241V611.5967H621.4903V576.5489l78.2622-129.9688,12.3476-2.6709h33.6231V576.4073h25.9287v35.1894l-12.3477,2.6699-13.581-2.6699v42.0274l-12.3477,2.6718Zm0-77.2168V505.0284l-48.0122,71.3789Z"/><path fill="#ffba31" d="M694.6241,656.2959V614.2666H609.1426V579.2198l90.6099-132.6397h33.623V579.0772h25.9287v35.1894H733.3755v42.0293Zm0-77.2187v-71.377l-48.0123,71.377Z"/><path fill="#f4a300" d="M575.0249,465.5655q-17.0961-21.6549-47.4424-21.6563a72.89718,72.89718,0,0,0-15.2421,1.541l-.0152-.0156-11.0415,2.4082.9268.7324a54.00242,54.00242,0,0,0-21.9278,16.7051q-20.5158,25.93065-20.5156,84.9121,0,60.123,18.6636,83.5576,18.6621,23.4375,49.1518,23.4366c1.6324,0,3.2247-.0645,4.7989-.1563l.1894.8203,10.2232-2.1797.0083-.0195a54.14269,54.14269,0,0,0,32.0801-19.8359q20.5158-25.9278,20.5156-85.1973Q595.398,491.21145,575.0249,465.5655ZM549.3804,602.7627q-3.1347,11.9664-8.833,16.5977a20.48538,20.48538,0,0,1-25.8584.0703q-5.62935-4.55715-9.332-18.3066-3.70605-13.74765-3.7032-50.5059,0-36.75585,4.1309-52.2852,3.13185-11.96775,8.833-16.5976a20.00236,20.00236,0,0,1,12.9648-4.6309,19.72906,19.72906,0,0,1,12.8936,4.6309q5.6265,4.63185,9.332,18.3789,3.7032,13.7505,3.7032,50.5039Q553.5113,587.37555,549.3804,602.7627Z"/><path fill="#ffba31" d="M515.2354,446.5801q30.345,0,47.4419,21.6572,20.3715,25.64355,20.373,85.0528,0,59.269-20.5156,85.1963-16.9563,21.3705-47.2993,21.3701-30.49,0-49.1524-23.4356-18.665-23.4345-18.6635-83.5576,0-58.98345,20.5156-84.9121Q484.88765,446.58205,515.2354,446.5801Zm0,33.1963a20.00725,20.00725,0,0,0-12.9654,4.6299q-5.6997,4.6332-8.833,16.5986-4.1337,15.53025-4.1308,52.2852,0,36.75585,3.7031,50.5058,3.7032,13.7505,9.332,18.3067a20.49023,20.49023,0,0,0,25.8584-.0713q5.6961-4.6275,8.833-16.5967,4.13025-15.3882,4.1314-52.1445,0-36.75735-3.7036-50.5049-3.70605-13.74765-9.3321-18.3789A19.733,19.733,0,0,0,515.2354,479.7764Z"/><polygon fill="#76b1c1" points="898.361 703.173 895.127 703.173 900.589 613.478 907.44 613.478 898.361 703.173"/><polygon fill="#76b1c1" points="936.082 703.173 932.849 703.173 938.311 613.478 945.162 613.478 936.082 703.173"/><polygon fill="#76b1c1" points="1042.277 703.173 1045.511 703.173 1041.671 613.478 1034.82 613.478 1042.277 703.173"/><polygon fill="#76b1c1" points="1004.556 703.173 1007.789 703.173 1003.95 613.478 997.099 613.478 1004.556 703.173"/><path fill="#a2a54c" d="M895.9507,617.0137c1.9419-10.1299,11.2041-49.4541,37.9492-50.0537,26.7354-.5723,35.6665,39.832,37.4951,50.0537h4.7842a118.56545,118.56545,0,0,0-7.6948-26.4072c-8.1968-18.875-20.1772-28.6348-34.6899-28.3526-14.4375.3252-26.458,10.3116-34.7627,28.8819a116.62651,116.62651,0,0,0-7.875,25.8779Z"/><path fill="#ddda7a" d="M1052.1411,465.9795l-5.6562,112.9131-17.7783,25.1065-39.8389,3.0449c-.666,7.3847-1.2183,11.9922-1.2183,11.9922H889.604s-5.4814-12.543,0-25.4873c3.75-8.8125,33.501-9.8399,52.1353-9.5743,8.7554.1143,15.0557.4952,15.0557.4952v-.3809c.1528-5.71,7.7504-108.1172,19.7797-117.5586v-.0371a4.63409,4.63409,0,0,1,.8379-.4961,4.54131,4.54131,0,0,1,.628-.2842,1.95519,1.95519,0,0,1,.1904-.0771.35947.35947,0,0,1,.1328-.0371c5.939-2.1514,22.8037-3.3321,39.6484-3.084C1031.1079,462.7237,1044.2227,463.7901,1052.1411,465.9795Z"/><path fill="#9cc6d4" d="M1052.1411,465.9795l-5.6562,112.9131-17.7783,25.1065-39.8389,3.0449c-.666,7.3847-1.2183,11.9922-1.2183,11.9922H898.9693s-5.501-12.543,0-25.4873c3.1406-7.4424,24.8779-9.3272,42.77-9.5743,5.6338-.0947,10.8872-.0185,15.0557.1143,5.6723.1523,9.3647.3809,9.3647.3809S973.377,476.3907,985.94,466.5303v-.0371a4.41166,4.41166,0,0,1,.8183-.4961,3.92242,3.92242,0,0,1,.647-.2842c.0571-.0195.1143-.0576.1714-.0771a.45354.45354,0,0,1,.1523-.0371c4.8155-1.752,16.8828-2.875,30.2832-3.084C1031.1079,462.7237,1044.2227,463.7901,1052.1411,465.9795Z"/><path fill="#76b1c1" d="M1043.3438,619.0362H945.2984s-5.4815-12.543,0-25.4873c5.4824-12.9424,80.0009-.3995,80.0009-.3995s11.3663-128.2744,26.8418-127.1699c4.1114.2852,6.9092,3.1592,8.7178,7.8028C1071.1177,500.2022,1043.3438,619.0362,1043.3438,619.0362Z"/><path fill="#669fad" d="M1043.3438,619.0362H947.9444c-.9136-4.8731,86.8755-5.5586,86.8755-5.5586s21.8657-63.1289,26.039-139.6953C1071.1177,500.2022,1043.3438,619.0362,1043.3438,619.0362Z"/><path fill="#2e3248" d="M1078.752,472.0254a14.68482,14.68482,0,0,0-1.4878-4.9375,2.01394,2.01394,0,0,0-3.1416-.4053,11.908,11.908,0,0,1-9.792,3.7061,15.91784,15.91784,0,0,1-10.2207-4.9951c-6.5781-6.6455-8.544-16.5713-9.0894-25.5645-.645-10.6347.5005-21.3193-.9624-31.9121-1.2177-8.8144-4.5083-17.834-11.1777-24.001a24.85822,24.85822,0,0,0-18.604-6.6298c-5.8579-.0508-12.5698,1.9199-16.4419,6.3798a5.52882,5.52882,0,0,0-1.4072,5.1065,6.88078,6.88078,0,0,0,2.8701,3.5937c2.4565,1.753,5.2607,2.5782,6.7139,5.4327,1.3867,2.7226,1.3603,6.0673,1.1572,9.038-.2695,3.9502-1.0586,7.8614-1.5508,11.7872-1.126,8.9785-1.541,18.082-.0518,27.0439a56.00659,56.00659,0,0,0,7.8404,20.6162c7.5679,12.0215,19.6655,21.4942,33.4971,25.084,7.5444,1.959,16.3911,2.1504,23.1625-2.2617C1075.5952,485.5049,1079.5318,478.7373,1078.752,472.0254Z"/><path fill="#f5e9df" d="M851.2163,627.6924a194.02129,194.02129,0,0,0-14.7573,15.7783s.0142.0577-.0649.1075c-4.5821,6.081-7.8418,8.4169-12.4932,10.5517,1.9048-12.4258-3.0268-18.2695-15.2832-25.0039-11.5176-6.3379-27.1797-16.9004-24.8555-16.3818,8.7598,1.5068,15.7295,7.039,25.8907,5.4834a9.79788,9.79788,0,0,0,2.2172-.5215c1.5435-.5371,12.087-8.6231,17.6587-13.9121C830.7486,604.7696,845.104,619.9932,851.2163,627.6924Z"/><path fill="#ff5548" d="M819.7808,656.5039a2.07386,2.07386,0,0,1-1.5127-.0947c-2.9272-2.3808,3.5088-11.1367,1.1357-12.0879-31.7168-12.7793-44.4648-27.4756-44.8808-30.8359a2.02579,2.02579,0,0,1,.5869-1.7969c2.2602-2.1816,9.8447-1.1807,12.5742-.1826,8.6841,2.7685,8.2754,3.8437,22.0244,6.6973,0,0,8.0806,18.2119,26.7471,25.3007a.05823.05823,0,0,1-.0566.0616C830.8584,651.7256,823.1343,655.9102,819.7808,656.5039Z"/><path fill="#ee1800" d="M818.2681,656.4092c-2.9272-2.3808,3.5088-11.1367,1.1357-12.0879-31.7168-12.7793-44.4648-27.4756-44.8808-30.8359a2.02579,2.02579,0,0,1,.5869-1.7969c11.6919,13.3281,19.6406,17.8545,35.1172,25.1748,11.7441,5.5596,14.2939,3.9219,9.4326,16.627C819.5894,653.9961,818.541,656.6065,818.2681,656.4092Z"/><path fill="#f5e9df" d="M904.0752,663.1436a193.838,193.838,0,0,0-1.4673,21.5547s.0469.0351.0176.124c.2905,7.6084-.7597,11.4795-3.0156,16.0723-6.3755-10.834-13.8906-12.2471-27.645-9.7207-12.9322,2.3652-31.7447,4.0752-29.6162,3.0087,7.7417-4.3671,16.6391-4.4834,23.5317-12.1093a9.83338,9.83338,0,0,0,1.3892-1.8067c.8569-1.3906,3.9189-14.3203,4.895-21.9414C873.7261,658.3116,894.4727,661.0391,904.0752,663.1436Z"/><path fill="#ff5548" d="M897.9165,705.3389a2.07529,2.07529,0,0,1-1.2319.8828c-3.7739.0039-4.3184-10.8496-6.7583-10.0879-32.6572,10.1387-51.8242,6.8028-54.2695,4.4619a2.02344,2.02344,0,0,1-.6807-1.7636c.3731-3.1202,6.8838-7.1358,9.6299-8.087,8.4795-3.3417,8.8428-2.25,21.3017-8.7265,0,0,17.7715,9.0088,36.7183,2.707a.05852.05852,0,0,1-.0054.084C903.4839,694.6358,900.1411,702.7588,897.9165,705.3389Z"/><path fill="#ee1800" d="M896.6846,706.2217c-3.7739.0039-4.3184-10.8496-6.7583-10.0879-32.6572,10.1387-51.8242,6.8028-54.2695,4.4619a2.02344,2.02344,0,0,1-.6807-1.7636c17.4839,2.9423,26.5039,1.4267,43.1255-2.6787,12.6147-3.1114,13.5561-5.9922,17.8174,6.9257C896.1841,703.5166,897.021,706.2022,896.6846,706.2217Z"/><path fill="#f5e9df" d="M954.7881,482.6387l-47.6465,29.7686-18.2924-25.5098,48.7587-32.0957c.1094-.0723.2227-.1318.333-.2012C939.9927,458.4629,951.2534,477.1377,954.7881,482.6387Z"/><path fill="#f5e9df" d="M888.2447,503.9717,873.1651,428.042l21.5854-5.8027,22.2442,83.8203-9.8531,6.3477A12.35921,12.35921,0,0,1,888.2447,503.9717Z"/><path fill="#d7f2f9" d="M975.8687,449.1211a16.3477,16.3477,0,0,1-4.6543,22.6465l-28.3252,18.667c-1.7598,1.1592-7.2129-4.0127-12.1817-11.5518-4.9682-7.54-7.5698-14.5908-5.8105-15.75l28.3252-18.6669A16.34881,16.34881,0,0,1,975.8687,449.1211Z"/><path fill="#fff" d="M913.5982,539.5547l97.6582,20.7569s8.5722-73.2247,9.7387-98.4727c.647-14.0039-7.8481-21.0557-14.4096-21.0557H968.1426c-9.2783,0-15.9341,2.8975-22.6792,16.9571C936.0791,477.3018,913.5982,539.5547,913.5982,539.5547Z"/><path fill="#eadace" d="M991.1143,413.6358s-1.3037,16.2636-1.8101,27.1972c-2.2275,5.5059-15.5967,7.0479-17.8491,3.2012l1.7368-21.6699Z"/><path fill="#f5e9df" d="M959.0157,411.1104c0,11.9707,4.8852,21.6738,13.2856,21.6738,6.9336,0,20.1709-9.7031,20.1709-21.6738,0-11.9697-7.4897-21.6738-16.7285-21.6738C966.5054,389.4366,959.0157,399.1407,959.0157,411.1104Z"/><path fill="#2e3248" d="M971.8365,411.2256a1.60412,1.60412,0,1,0,1.5791-1.8877A1.75491,1.75491,0,0,0,971.8365,411.2256Z"/><path fill="#2e3248" d="M961.2222,410.1719a1.60412,1.60412,0,1,0,1.5786-1.8877A1.7539,1.7539,0,0,0,961.2222,410.1719Z"/><path fill="#2e3248" d="M968.544,421.3955c-1.2246,0-2.6074-.1318-3.0967-.6757a.82789.82789,0,0,1-.2026-.7491c.2895-1.3906,1.4741-5.7207,1.5244-5.9043l.7236.1973c-.0122.0449-1.229,4.4922-1.5137,5.8594a.09049.09049,0,0,0,.0254.0957c.4429.4922,2.8994.4873,4.5044.3271l.0747.7461C970.2813,421.3223,969.4566,421.3955,968.544,421.3955Z"/><path fill="#2e3248" d="M968.9341,427.3155a4.06614,4.06614,0,0,1-3.0039-1.5l.5518-.5079a3.31262,3.31262,0,0,0,2.4712,1.2579,4.00814,4.00814,0,0,0,2.604-1.2539l.5586.5a4.74,4.74,0,0,1-3.1573,1.5039Z"/><path fill="#2e3248" d="M976.6216,408.0996a3.73025,3.73025,0,0,0-2.5166-1.7441,4.04654,4.04654,0,0,0-2.8115.876l-.4829-.5733a4.786,4.786,0,0,1,3.3843-1.0478,4.44421,4.44421,0,0,1,3.04,2.0576Z"/><path fill="#2e3248" d="M965.3062,406.6914a3.02245,3.02245,0,0,0-2.168-1.3379,2.98355,2.98355,0,0,0-2.0644.8838l-.5454-.5146a3.343,3.343,0,0,1,5.3657.5019Z"/><path fill="#f06a4a" d="M879.5284,613.2588l113.35-20.4219a23.99446,23.99446,0,0,0,19.3594-27.8691h0a23.99336,23.99336,0,0,0-27.8686-19.3603L884.355,563.626a13.552,13.552,0,0,0-10.9331,15.7393Z"/><path fill="#f06a4a" d="M889.2788,563.7881l94.6036,28.4111a23.99509,23.99509,0,0,0,28.3837-18.5966h0a23.99526,23.99526,0,0,0-18.5966-28.3848l-99.4883-20.7246a13.5498,13.5498,0,0,0-16.0293,10.5019Z"/><path fill="#f06a4a" d="M813.127,604.6631l36.52,36.0996,8.4902-10.0498,3.8799-4.5908,63.8897-75.6289L900.187,527.6426a13.55468,13.55468,0,0,0-19.1503,1.1494l-53.3799,59.6406-4.0098,4.4708Z"/><path fill="#f06a4a" d="M852.9966,669.8028l56.5303,6.1494,1.3999-10.0391.8198-5.8603,11.7603-84.1905L891.107,564.292a13.567,13.567,0,0,0-17.3301,8.2403L856.187,654.8828l-1.0102,4.7393Z"/><path fill="#2e3248" d="M862.7984,625.7041l-.7383-.1328,9.1343-50.5908a15.31145,15.31145,0,0,1,19.584-11.9102l93.2143,28.7706-.2212.7167-93.2148-28.7705a14.56048,14.56048,0,0,0-18.6241,11.3262Z"/><path fill="#f5e9df" d="M1029.8159,467.0948l24.8438,50.3906-27.2144,15.6435-27.0473-51.7295c-.0606-.1162-.1094-.2353-.167-.3515C1004.2788,479.3936,1023.9878,470.0606,1029.8159,467.0948Z"/><path fill="#f5e9df" d="M1044.3731,535.4414,967.314,542.835l-3.6099-22.0566,85.6275-13.7325,5.3281,10.4395A12.35909,12.35909,0,0,1,1044.3731,535.4414Z"/><path fill="#d7f2f9" d="M998.5796,442.7617a16.34737,16.34737,0,0,1,22.0664,6.9014l15.7344,30.0528c.9766,1.8662-4.7158,6.7744-12.7148,10.9619-7.9991,4.1884-15.2754,6.0693-16.253,4.2041l-15.7339-30.0547A16.348,16.348,0,0,1,998.5796,442.7617Z"/><path fill="#2e3248" d="M1009.3946,495.9737c-1.0787,0-1.9595-.2422-2.3135-.919L991.3467,465.002a16.723,16.723,0,0,1,7.0591-22.5723l.3476.6641a15.97421,15.97421,0,0,0-6.7426,21.5605l15.7343,30.0528c.2881.5488,1.7706.831,5.0669-.0196a60.014,60.014,0,0,0,20.3321-10.6455c2.5796-2.2236,3.1914-3.6025,2.9038-4.1523l.664-.3477c.7203,1.375-1.2763,3.5147-3.0781,5.0684A60.75291,60.75291,0,0,1,1013,495.4131,15.32743,15.32743,0,0,1,1009.3946,495.9737Z"/><path fill="#f5e9df" d="M926.2134,521.1426s-2.1997,1.3252-1.834,2.4961c.3662,1.1709,2.8975.9522,2.8975.9522s-2.3115,1.1699-1.9458,2.6347c.3662,1.4629,2.5864.9434,2.5864.9434s-2.3584,1.5937-1.7041,2.9961c.6548,1.4033,3.29.4511,3.29.4511s-2.4209.9082-2.2265,1.9043c.3721,1.9024,2.5195,1.3164,2.5195,1.3164l4.0986-3.1464-1.2441-10.5479Z"/><path fill="#2e3248" d="M927.9239,501.9893l-.6983-.2754c.1289-.3262,12.9351-32.8457,19.5059-47.2686a25.89676,25.89676,0,0,1,19.9741-15.3291l.0581.7481a25.13388,25.13388,0,0,0-19.3496,14.8916C940.8516,469.1612,928.0523,501.6621,927.9239,501.9893Z"/><path fill="#f5e9df" d="M874.0337,432.4131s-.4013-4.7812-3.622-6.3418a30.23688,30.23688,0,0,1-8.4449-6.3887,81.45512,81.45512,0,0,1-7.1211-10.958l12.3638-7.7822,8.667,9.8594s13.2744,2.5801,16.3257,5.124,2.6347,11.0147,2.6347,11.0147Z"/><path fill="#f5e9df" d="M866.9117,401.0547s-1.9336-1.7402-2.9092-1.1865.0332,2.8037.0332,2.8037-1.8262-1.8701-3.0742-1.2607c-1.2486.6093-.0577,2.5195-.0577,2.5195s-2.2358-1.832-3.3354-.9727.022,3.4248.022,3.4248-1.1836-1.1337-2.0489-.7685c-1.6562.6982-.6958,3.1103-.6958,3.1103l4.6743,1.2881,9.4366-3.1299Z"/><path fill="#d07d73" d="M874.0332,432.9131a.49985.49985,0,0,1-.4897-.4023c-.8911-4.4864-3.8262-6.3643-6.9331-8.3516-.7529-.4824-1.5318-.9805-2.272-1.5146-2.4805-1.7891-5.6059-6.0459-9.5557-13.0157a4.46832,4.46832,0,0,1-.6098-2.4931,2.16566,2.16566,0,0,1,1.147-1.9698,1.64159,1.64159,0,0,1,1.3735.0254,2.5875,2.5875,0,0,1,.5669-2.6269,2.50616,2.50616,0,0,1,2.6548.1299,1.97532,1.97532,0,0,1,.042-.8164,1.44913,1.44913,0,0,1,.7851-.9161,2.51905,2.51905,0,0,1,2.3672.3467,1.71662,1.71662,0,0,1,.6465-1.875c1.2246-.6953,3.1221.919,3.4902,1.249a.50015.50015,0,0,1-.6684.7442c-.6997-.6279-1.899-1.3672-2.3282-1.124-.3598.2041-.101,1.3984.2422,2.165a.49972.49972,0,0,1-.8134.5537c-.4097-.417-1.7491-1.5293-2.4976-1.1611a.45028.45028,0,0,0-.2622.293,2.41235,2.41235,0,0,0,.4097,1.5146.50005.50005,0,0,1-.7417.6504c-.6294-.5147-2.1221-1.4258-2.71-.9668-.5977.4668-.1421,2.1094.1724,2.831a.50018.50018,0,0,1-.8067.5586c-.3896-.3759-1.1279-.8515-1.4805-.6787-.1313.0655-.5327.2627-.5908,1.1397a3.47458,3.47458,0,0,0,.482,1.9345c3.8232,6.7452,6.9419,11.0176,9.2705,12.6973.7177.5176,1.4843,1.0078,2.226,1.4824,3.1465,2.0137,6.4004,4.0957,7.3746,8.9991a.49948.49948,0,0,1-.3926.5879A.48718.48718,0,0,1,874.0332,432.9131Z"/><path fill="#d07d73" d="M871.876,412.8116a.4999.4999,0,0,1-.3882-.1846l-7.8398-9.6397a.49979.49979,0,1,1,.7754-.6308l7.8398,9.6396a.50015.50015,0,0,1-.3872.8155Z"/><path fill="#d07d73" d="M868.5093,414.8008a.49907.49907,0,0,1-.4038-.2041L860.5,404.2276a.50025.50025,0,0,1,.8067-.5918l7.6054,10.3691a.49994.49994,0,0,1-.4028.7959Z"/><path fill="#d07d73" d="M865.5327,417.0205a.49791.49791,0,0,1-.394-.1914l-7.9419-10.1377a.50012.50012,0,0,1,.7871-.6172l7.9419,10.1377a.5002.5002,0,0,1-.3931.8086Z"/><path fill="#f5e9df" d="M895.4649,424.9307s-2.5191-13.9727-5.3399-16.4736c-1.7563-1.5586-7.0263-3.6114-9.5639-3.0264-2.5371.5859-1.5616,2.4902.976,3.6855,2.5376,1.1944,4.0992,5.0977,4.001,6.4649C885.4409,416.9473,895.4649,424.9307,895.4649,424.9307Z"/><path fill="#d07d73" d="M880.6094,419.4717a.50044.50044,0,0,1-.4985-.4678c-.3135-4.789,4.5234-6.5205,4.5722-6.5371a.50033.50033,0,0,1,.3282.9453c-.1704.0596-4.1661,1.5049-3.9024,5.5274a.5001.5001,0,0,1-.4663.5312C880.6314,419.4717,880.6201,419.4717,880.6094,419.4717Z"/><path fill="#e25a40" d="M882.125,541.4287a.5584.5584,0,0,0,.67.086c1.9067-1.2305,2.7407-3.4121,4.1699-5.086.2383-.2783.5044-.5312.7632-.79q.8379-.4467,1.6757-.8936c1.3228-.705,2.731-1.3388,3.9776-2.1738.7246-.4863,1.8511-1.3887,1.7295-2.3847-.1377-1.1368-1.5142-.8555-2.2862-.7549a20.88921,20.88921,0,0,0-6.0595,1.5146,8.35784,8.35784,0,0,0-4.3067,4.3574C881.7007,537.0733,880.648,539.7588,882.125,541.4287Z"/><path fill="#d7f2f9" d="M938.7451,491.7451c2.9043-1.5683,6.0933-1.2382,9.1734-.4052a89.05915,89.05915,0,0,0,9.4443,2.3349c6.5015,1.0215,13.2095,1.2012,19.3609,3.7705a2.09021,2.09021,0,0,1,1.2465,1.2725,1.66339,1.66339,0,0,1,.273.9287,1.81041,1.81041,0,0,1-1.7974,1.7979c-.8955-.084-1.7881-.1905-2.6816-.2881-11.5068-1.1094-23.3516-.6787-34.0869-5.5703a1.40354,1.40354,0,0,1-.6304-.6075A1.81491,1.81491,0,0,1,938.7451,491.7451Z"/><path fill="#2e3248" d="M950.7242,393.3145a10.62047,10.62047,0,0,1,1.8613-4.457,7.25933,7.25933,0,0,1,3.6826-7.2432,14.71126,14.71126,0,0,1,9.1484-1.5078c27.7119-10.1934,42.0147,8.3349,38.2715,26.7422-1.2041,5.9199-7.8613,16.2226-14.8633,10.2207-3.4824-2.9873-4.0888-9.8887-4.8457-14.044a45.15206,45.15206,0,0,1-.7685-8.5224c-.7744.3437-3.5713,2.1904-4.6426,2.288-3.5737.3252-6.7319-2.4716-7.5898-.1826a5.20085,5.20085,0,0,1-5.9273,3.3125c-2.0766-.5-1.5571-.7539-3.5571.3946C956.187,403.3594,949.7451,399.919,950.7242,393.3145Z"/><path fill="#f5e9df" d="M986.2759,412.0576c0,3.0254,1.1133,5.9424,3.791,5.9424s5.3037-2.9775,5.9068-5.9424c.6059-2.9824-1.2007-5.9453-3.8785-5.9453A6.47669,6.47669,0,0,0,986.2759,412.0576Z"/><rect width="81.759" height="3.58" x="851.238" y="531.668" fill="#3c4159" transform="rotate(-176.212 892.117 533.459)"/><polygon fill="#474d63" points="932.789 537.945 970.036 534.692 970.272 531.12 933.026 534.373 932.789 537.945"/><polygon fill="#76b1c1" points="970.272 531.12 877.878 522.28 851.446 528.972 933.026 534.373 970.272 531.12"/><path fill="#474d63" d="M853.7447,529.1241l81.2563,5.3798-7.3848-50.7373a3.0696,3.0696,0,0,0-2.7768-2.6924l-73.1787-4.8457a4.75778,4.75778,0,0,0-4.8018,5.5889Z"/><path fill="#3c4159" d="M851.7691,528.9932l81.2568,5.3799-7.3852-50.7373a3.06884,3.06884,0,0,0-2.7764-2.6924l-74.7197-4.9473a3.46424,3.46424,0,0,0-3.4966,4.0694Z"/><path fill="#474d63" d="M851.7691,528.9932l62.8672,4.1621-39.2989-55.3594-27.1928-1.7998a3.46424,3.46424,0,0,0-3.4966,4.0694Z"/><path fill="#f5e9df" d="M964.3501,520.7657s-9.5312-.294-12.8974-1.6114c-3.3672-1.3174-9.0884-2.8652-11.2725-2.6347-6.0791.6416-13.3213,4.6113-13.3213,4.6113l-1.8335,2.4951,2.4082,1.2451-1.4565,2.3428,2.2021,1.2344-1.3203,2.7051,2.4297.8408-1.5752,1.9717,2.7285.8593,14.7852-1.709s9.4458,9.3145,13.3984,9.753a57.149,57.149,0,0,0,9.334-.0459l6.791-6.8936-1.3032-9.6924Z"/><path fill="#d07d73" d="M929.9942,535.3594a2.43382,2.43382,0,0,1-2.5567-1.7285,1.32189,1.32189,0,0,1,.4317-1.2549,1.83287,1.83287,0,0,1-1.4629-1.0117,2.46892,2.46892,0,0,1,.771-2.6572,1.8642,1.8642,0,0,1-1.6851-1.3731,2.41151,2.41151,0,0,1,.939-2.3125,2.14629,2.14629,0,0,1-1.8828-1.2451c-.4693-1.5029,1.7934-2.917,2.0532-3.0742a.49995.49995,0,0,1,.5161.8564c-.751.4551-1.7837,1.3789-1.6152,1.919.1738.5566,1.6313.665,2.3764.6025a.49981.49981,0,0,1,.2701.9434c-.5074.2588-1.9053,1.1943-1.6871,2.0683.2417.9668,1.9703.5801,1.9878.5772a.50056.50056,0,0,1,.3941.9013c-.52.3526-1.9165,1.5459-1.5313,2.3711.3755.8047,2.0943.3995,2.667.1924a.50031.50031,0,0,1,.3443.9395c-1.107.4131-1.979,1.0664-1.9165,1.3115.3017,1.1914,1.8877.958,1.9555.9463a.50007.50007,0,0,1,.1597.9873A3.27516,3.27516,0,0,1,929.9942,535.3594Z"/><path fill="#d07d73" d="M927.9224,525.0782a.50028.50028,0,0,1-.146-.9786l10.1777-3.1045a.50033.50033,0,0,1,.292.9571l-10.1777,3.1045A.50774.50774,0,0,1,927.9224,525.0782Z"/><path fill="#d07d73" d="M928.5625,528.6563a.4998.4998,0,0,1-.1259-.9834l11.1743-2.919a.49967.49967,0,1,1,.2529.9668l-11.1743,2.919A.47609.47609,0,0,1,928.5625,528.6563Z"/><path fill="#d07d73" d="M930.1485,532.1045a.5.5,0,0,1-.1075-.9883l9.5884-2.122a.5.5,0,1,1,.2158.9765l-9.5883,2.1221A.51663.51663,0,0,1,930.1485,532.1045Z"/><path fill="#f5e9df" d="M958.2285,520.4795s-7.311-4.8799-9.3647-4.8799-9.6387,3.4161-9.6387,3.4161l18.5157,5.8554Z"/><path fill="#d07d73" d="M964.3506,521.2657h-.0176c-.9848-.0342-9.6718-.3497-11.3798-1.003-4.9873-1.9052-9.0977-3.0654-11.5733-3.2685a.49973.49973,0,1,1,.082-.9961c3.4634.2832,8.9102,2.208,11.8482,3.331,1.314.502,8.4267.8467,11.0571.9366a.50015.50015,0,0,1-.0166,1Z"/><path fill="#76b1c1" d="M960.0367,614.6026c2.6562-12.4707,12.2895-47.0782,37.456-47.6426.1973-.0049.3936-.0078.5879-.0078,21.2109,0,31.1079,25.8574,35.1064,41.1328.9707-1.4424,1.8282-3.2774,3.0889-5.5977.0234-.0429.044-.0781.0674-.1201a107.73958,107.73958,0,0,0-4.2647-11.7627c-8.1977-18.873-20.1806-28.6328-34.6914-28.3506-14.4365.3252-26.458,10.3116-34.7622,28.8819a115.756,115.756,0,0,0-7.4516,23.9043Q957.61225,614.876,960.0367,614.6026Z"/><path fill="#e25a40" d="M840.606,296.9385l8.3115,1.3955a13.62366,13.62366,0,0,1-5.061,6.96,14.86458,14.86458,0,0,1-8.6529,2.3906q-8.2221,0-12.1699-5.373a18.04808,18.04808,0,0,1-3.1172-10.8653q0-7.8369,4.0967-12.2734a13.48791,13.48791,0,0,1,10.3594-4.4375q7.03485,0,11.1016,4.6445,4.06635,4.6479,3.8886,14.2344l-2.2807.3564-18.6162-.3564a8.43486,8.43486,0,0,0,2.018,5.7734,6.31406,6.31406,0,0,0,4.8091,2.0625,5.10424,5.10424,0,0,0,3.2949-1.0683c.753-.6026-.7041-1.8614-.2622-3.0879C838.4058,297.0713,840.5357,297.1826,840.606,296.9385Zm.4751-8.4297a8.03094,8.03094,0,0,0-1.8701-5.5068,6.01886,6.01886,0,0,0-8.8457.1045,7.69378,7.69378,0,0,0-1.751,5.4023Z"/><path fill="#e25a40" d="M864.145,306.9717l-2.2802.3565-6.0606-.3565-2.2802-31.168,2.2802-.3574h7.7476v4.4834a13.49374,13.49374,0,0,1,3.5766-4.1865,6.58622,6.58622,0,0,1,3.6065-1.0078,10.57912,10.57912,0,0,1,5.4917,1.5732l-2.5825,7.2725a11.6406,11.6406,0,0,1-2.2803.3564c-.9717-.4716-.7695-1.7216-1.6382-1.7216a4.62614,4.62614,0,0,0-2.9682.9648,6.58917,6.58917,0,0,0-1.9146,3.4873q-.69795,2.5239-.6978,10.5674Z"/><path fill="#e25a40" d="M887.8028,306.9717l-2.2808.3565-6.0601-.3565-2.2807-31.168,2.2807-.3574h7.7476v4.4834a13.49243,13.49243,0,0,1,3.5767-4.1865,6.58589,6.58589,0,0,1,3.6064-1.0078,10.57912,10.57912,0,0,1,5.4917,1.5732l-2.5825,7.2725c-.5044.1074-1.6348.2695-2.2808.3564-1.0439-.5381-.7099-1.7216-1.6377-1.7216a4.62633,4.62633,0,0,0-2.9682.9648,6.58984,6.58984,0,0,0-1.9146,3.4873q-.69795,2.5239-.6977,10.5674Z"/><path fill="#e25a40" d="M901.5464,290.7647a17.0492,17.0492,0,0,1,2.0484-8.0449,14.06263,14.06263,0,0,1,5.8027-5.9366,17.22547,17.22547,0,0,1,8.3857-2.0478,15.74379,15.74379,0,0,1,11.7251,4.6445,16.056,16.056,0,0,1,4.5713,11.7412,16.24432,16.24432,0,0,1-4.6157,11.8584,15.60173,15.60173,0,0,1-11.6211,4.7051,18.31166,18.31166,0,0,1-8.2671-1.96,13.43667,13.43667,0,0,1-5.9809-5.7431A19.13515,19.13515,0,0,1,901.5464,290.7647Zm8.5488.4453q0,4.69035,2.2256,7.1836a7.27892,7.27892,0,0,0,10.9688,0q2.21115-2.49615,2.2114-7.2432,0-4.63035-2.2114-7.124a7.27873,7.27873,0,0,0-10.9688,0Q910.0957,286.51955,910.0952,291.21Z"/><path fill="#e25a40" d="M948.5948,306.9717l-2.2808.3565-6.0601-.3565-2.2807-31.168,2.2807-.3574h7.7476v4.4834a13.49243,13.49243,0,0,1,3.5767-4.1865,6.58565,6.58565,0,0,1,3.6064-1.0078,10.57912,10.57912,0,0,1,5.4917,1.5732l-2.5825,7.2725a8.28255,8.28255,0,0,1-2.2808.3564c-.9931-.4912-.751-1.7216-1.6377-1.7216a4.62614,4.62614,0,0,0-2.9682.9648,6.58984,6.58984,0,0,0-1.9146,3.4873q-.698,2.5239-.6977,10.5674Z"/><path fill="#f06a4a" d="M838.3257,297.294l8.3115,1.3965a13.62866,13.62866,0,0,1-5.0615,6.9609,14.87631,14.87631,0,0,1-8.6523,2.3896q-8.22225,0-12.17-5.373a18.04657,18.04657,0,0,1-3.1171-10.8643q0-7.8369,4.0966-12.2744a13.49059,13.49059,0,0,1,10.3594-4.4375q7.03425,0,11.1016,4.6455,4.06635,4.64655,3.8882,14.2334h-20.897a8.43294,8.43294,0,0,0,2.0185,5.7725,6.31315,6.31315,0,0,0,4.8086,2.0625,5.10886,5.10886,0,0,0,3.295-1.0674A6.59247,6.59247,0,0,0,838.3257,297.294Zm.4746-8.4287a8.027,8.027,0,0,0-1.8701-5.5069,6.01907,6.01907,0,0,0-8.8457.1045,7.69872,7.69872,0,0,0-1.751,5.4024Z"/><path fill="#f06a4a" d="M861.8648,307.3282H853.524V275.8037h7.747v4.4825a13.468,13.468,0,0,1,3.5772-4.1856,6.58661,6.58661,0,0,1,3.6064-1.0088,10.58728,10.58728,0,0,1,5.4912,1.5733l-2.582,7.2724a7.31692,7.31692,0,0,0-3.9189-1.3662,4.62623,4.62623,0,0,0-2.9678.9658,6.58735,6.58735,0,0,0-1.9151,3.4873q-.6972,2.524-.6972,10.5674Z"/><path fill="#f06a4a" d="M885.522,307.3282h-8.3408V275.8037h7.748v4.4825a13.481,13.481,0,0,1,3.5762-4.1856,6.58661,6.58661,0,0,1,3.6064-1.0088,10.58808,10.58808,0,0,1,5.4922,1.5733l-2.583,7.2724a7.3137,7.3137,0,0,0-3.9179-1.3662,4.629,4.629,0,0,0-2.9688.9658,6.59032,6.59032,0,0,0-1.9141,3.4873q-.6987,2.524-.6982,10.5674Z"/><path fill="#f06a4a" d="M899.2661,291.1211a17.06567,17.06567,0,0,1,2.0479-8.0459,14.0572,14.0572,0,0,1,5.8027-5.9355,17.2262,17.2262,0,0,1,8.3858-2.0479,15.74179,15.74179,0,0,1,11.7256,4.6455,16.05322,16.05322,0,0,1,4.5712,11.7403,16.243,16.243,0,0,1-4.6162,11.8584,15.60448,15.60448,0,0,1-11.6211,4.705,18.29779,18.29779,0,0,1-8.2666-1.9599,13.43855,13.43855,0,0,1-5.9814-5.7432A19.14453,19.14453,0,0,1,899.2661,291.1211Zm8.5489.4453q0,4.689,2.2256,7.1836a7.27862,7.27862,0,0,0,10.9687,0q2.2104-2.49465,2.2109-7.2431,0-4.63035-2.2109-7.1241a7.27881,7.27881,0,0,0-10.9687,0Q907.8155,286.8746,907.815,291.5664Z"/><path fill="#f06a4a" d="M946.314,307.3282h-8.3408V275.8037h7.748v4.4825a13.481,13.481,0,0,1,3.5762-4.1856,6.58661,6.58661,0,0,1,3.6064-1.0088,10.58808,10.58808,0,0,1,5.4922,1.5733l-2.583,7.2724a7.314,7.314,0,0,0-3.918-1.3662,4.629,4.629,0,0,0-2.9687.9658,6.59032,6.59032,0,0,0-1.9141,3.4873q-.6987,2.524-.6982,10.5674Z"/></svg>