<svg width="80" height="80" viewBox="0 0 80 80" fill="none" xmlns="http://www.w3.org/2000/svg">
<path d="M38 0H42L41 40H39L38 0Z" fill="#f97316"/>
<path d="M42 80L38 80L39 40L41 40L42 80Z" fill="#f97316"/>
<path d="M80 38L80 42L40 41L40 39L80 38Z" fill="#f97316"/>
<path d="M0 42L5.24537e-07 38L40 39L40 41L0 42Z" fill="#f97316"/>
<path d="M66.8701 10.3018L69.6985 13.1302L40.7072 40.7073L39.293 39.2931L66.8701 10.3018Z" fill="#f97316"/>
<path d="M13.1299 69.6982L10.3015 66.8698L39.2928 39.2927L40.707 40.7069L13.1299 69.6982Z" fill="#f97316"/>
<path d="M69.6982 66.8701L66.8698 69.6985L39.2927 40.7072L40.7069 39.293L69.6982 66.8701Z" fill="#f97316"/>
<path d="M10.3018 13.1299L13.1302 10.3015L40.7073 39.2928L39.2931 40.7071L10.3018 13.1299Z" fill="#f97316"/>
</svg>